<svg xml:space="preserve" style="max-height: 500px" viewBox="70 350 872 290" y="0px" x="0px" xmlns:xlink="http://www.w3.org/1999/xlink" xmlns="http://www.w3.org/2000/svg" id="Layer_1" version="1.1" width="872" height="290">
<style type="text/css">
	.st0{fill-rule:evenodd;clip-rule:evenodd;fill:#231F20;}
	.st1{fill-rule:evenodd;clip-rule:evenodd;fill:#C5202F;}
	.st2{fill:none;stroke:#010101;stroke-width:1.5147;}
	.st3{fill-rule:evenodd;clip-rule:evenodd;fill:#010101;stroke:#010101;stroke-width:0.3075;}
	.st4{fill-rule:evenodd;clip-rule:evenodd;fill:#FFFFFF;}
	.st5{fill-rule:evenodd;clip-rule:evenodd;fill:#010101;stroke:#010101;stroke-width:0.3189;}
	.st6{fill-rule:evenodd;clip-rule:evenodd;fill:#010101;}
</style>
<g>
	<path d="M846.8,425.1c-7.9,0-18.3,0.8-22,0.8c-2.2,0-10.5-0.3-13-0.3v2c4.4,0.8,6.7,2.4,6.7,6.4V492&#10;&#9;&#9;c0,4.1-2.4,5.9-6.9,6.7v2.1c2.5,0,10.2-0.3,12.4-0.3c3.6,0,13.3,0.6,21.2,0.6c27.5,0,44.4-16.3,44.4-38.4&#10;&#9;&#9;C889.7,440,873.5,425.1,846.8,425.1L846.8,425.1z M521.1,425.3c-4.1,0-14.5,0.6-18.2,0.6c-2.2,0-10.1-0.3-12.7-0.3v2&#10;&#9;&#9;c4.7,0.8,6.6,3,6.6,6.6v57.6c0,4-2.4,6.1-6.6,6.9v2.1c2.5,0,10.5-0.3,12.5-0.3c2.3,0,10.5,0.3,13,0.3v-2.1c-4.5-1-6.9-3-6.9-6.9&#10;&#9;&#9;V466c1.3,0.1,2.3,0.3,3.5,0.5c5.7,0.9,8.9,3.6,11.5,6.9c4.1,5.2,11.5,15.8,15.6,20.7c4.7,5.7,9.5,7.9,15.7,7.9&#10;&#9;&#9;c2.8,0,6.6-0.4,8.9-0.9v-1.6c-4.8-0.2-9.4-5.1-12.9-9.4c-3.6-4.3-12.5-16.8-15.7-20.5c-2.6-3-5.2-4.5-5.2-4.5&#10;&#9;&#9;c11.4-2.8,18.9-9.5,18.9-19.5C549.1,432.8,539,425.3,521.1,425.3L521.1,425.3z M757.7,425.3c-4.1,0-14.5,0.6-18.2,0.6&#10;&#9;&#9;c-2.2,0-10.1-0.3-12.6-0.3v2c4.7,0.8,6.6,3,6.6,6.6v57.6c0,4-2.5,6.1-6.6,6.9v2.1c2.5,0,10.5-0.3,12.5-0.3c2.3,0,10.5,0.3,13.1,0.3&#10;&#9;&#9;v-2.1c-4.5-1-7-3-7-6.9V466c1.3,0.1,2.4,0.3,3.5,0.5c5.7,0.9,8.9,3.6,11.5,6.9c4.1,5.2,11.2,15.8,15.3,20.7&#10;&#9;&#9;c4.7,5.7,9.6,7.9,15.7,7.9c2.9,0,6.6-0.4,8.9-0.9v-1.6c-4.8-0.2-9.4-5.1-12.9-9.4c-3.5-4.3-12.3-16.8-15.5-20.5&#10;&#9;&#9;c-2.6-3-5.2-4.5-5.2-4.5c11.4-2.8,18.9-9.5,18.9-19.5C785.7,432.8,775.6,425.3,757.7,425.3L757.7,425.3z M435.7,425.4&#10;&#9;&#9;c0,0-1.2,4.9-2.2,7.3l-24,57.7c-1.7,4.1-4.4,7.2-9.1,8.3v1.9l10.9-0.1c1.6,0,8.1,0.1,10.6,0.1v-1.9c-4.2-1.1-5.3-2.8-5.3-4.8&#10;&#9;&#9;c0-1.3,0.7-3.4,1.2-4.8l5-12.3h28.1l5.4,12.3c0.7,1.8,1.4,3.6,1.4,5.1c0,1.8-1.2,3.7-4.8,4.6l-0.1,1.9c2.8,0,10.9-0.1,12.9-0.1&#10;&#9;&#9;c2,0,10.4,0.1,13.2,0.1v-1.9c-5-1.3-7-4.1-8.8-8.1l-25.4-57.8c-1-2.4-2.2-7.3-2.2-7.3L435.7,425.4z M673.5,425.4&#10;&#9;&#9;c0,0-1.2,4.9-2.2,7.3l-24,57.7c-1.7,4.1-4.3,7.2-9,8.3l0,1.9l11.1-0.1c1.5,0,7.9,0.1,10.3,0.1v-1.9c-4.2-1.1-5.3-2.8-5.3-4.8&#10;&#9;&#9;c0-1.3,0.6-3.4,1.2-4.8l4.9-12.3h28.1L694,489c0.8,1.8,1.4,3.6,1.4,5.1c0,1.8-1.1,3.7-4.8,4.6l-0.1,1.9c2.7,0,10.9-0.1,12.9-0.1&#10;&#9;&#9;c1.9,0,10.5,0.1,13.2,0.1v-1.9c-5.1-1.3-7-4.1-8.8-8.1l-25.4-57.8c-1-2.4-2.2-7.3-2.2-7.3L673.5,425.4z M308.7,425.6v2&#10;&#9;&#9;c3.7,1,6,2.6,6,6.4v58.2c0,4-2.5,5.6-6,6.4v1.9l11.7-0.1c2.2,0,10.7,0.1,12.5,0.1v-1.9c-3.7-1-6.1-2.4-6.1-6.4v-27.5h43.4v27.5&#10;&#9;&#9;c0,4-2.4,5.6-6,6.4v1.9c1.8,0,10.1-0.1,12.3-0.1l11.9,0.1v-1.9c-3.7-1-6.2-2.5-6.2-6.4V434c0-4,2.7-5.6,6.2-6.4v-2l-11.9,0.3&#10;&#9;&#9;c-2.2,0-10.5-0.3-12.3-0.3v2c3.7,0.8,6,2.4,6,6.4v24.3h-43.4V434c0-4,2.6-5.6,6.1-6.4v-2c-1.8,0-10.3,0.3-12.5,0.3&#10;&#9;&#9;C318.5,425.9,310.5,425.6,308.7,425.6z M561.8,425.7v2.1c4.3,1,6.8,3.6,8.5,7.3l29.6,66h5.7l26.9-63.6c2.5-5.9,5.3-8.5,9.9-9.7&#10;&#9;&#9;v-2.1c-2.6,0-9.7,0.3-11.4,0.3c-1.9,0-7.8-0.3-10.2-0.3v2.1c3,0.6,5.2,2.2,5.2,4.5c0,2.1-1,4.9-2.5,8.4l-18.3,44.1l-19.4-44&#10;&#9;&#9;c-2.1-4.6-3.2-7-3.2-8.8c0-2.5,2.8-3.8,5.2-4.2v-2.1c-2.7,0-10.7,0.3-12.6,0.3C573.3,426.1,564.5,425.7,561.8,425.7L561.8,425.7z&#10;&#9;&#9; M517.6,430.1c12.3,0,19.1,6.2,19.1,16.4c0,7.1-4.4,15.2-18.5,15.2c-3.5,0-7-0.1-9.4-0.4v-30.4&#10;&#9;&#9;C511.7,430.4,514.6,430.1,517.6,430.1L517.6,430.1z M754.2,430.1c12.3,0,19.1,6.2,19.1,16.4c0,7.1-4.4,15.2-18.5,15.2&#10;&#9;&#9;c-3.5,0-7-0.1-9.4-0.4v-30.4C748.3,430.4,751.3,430.1,754.2,430.1L754.2,430.1z M843.2,430.1c21,0,33.3,13.7,33.3,33.2&#10;&#9;&#9;c0,18.8-11.7,32.3-34.1,32.3c-3.9,0-9-0.3-11.7-0.8v-64C833.6,430.4,838.9,430.1,843.2,430.1L843.2,430.1z M436.3,442.8l11.9,27.8&#10;&#9;&#9;h-23.1L436.3,442.8z M674.1,442.8l11.9,27.8h-23L674.1,442.8z" class="st0"/>
	<path d="M191.2,402.6l-80.7,0l-0.2,64.5c0,79.1,79.4,129.5,80.2,130l0.2,0.2c0.2,0,0.7-0.4,0.7-0.4&#10;&#9;&#9;c13.5-8.8,80.8-56.5,80.8-129.4v-64.8C272,402.6,191.2,402.6,191.2,402.6" class="st1"/>
	<path d="M111.3,467.2v-64.3h161c0,0,0,9.6,0,64.8c0,81.5-81.2,129.3-81.2,129.3S111.3,546.7,111.3,467.2L111.3,467.2z" class="st2"/>
	<path d="M640.3,534.8c-7.9,0-13,4.1-13,10.7c0,7.5,7.5,10.2,11.1,12c4.9,2.4,9.1,4.4,9.1,8.5c0,4-3.2,6.5-8.3,6.5&#10;&#9;&#9;c-2.3,0-5.1-0.6-7-1.9c-1.7-1.2-3-3.2-3.6-5.3h-1.1l0.1,8.1c2.9,0.4,6.1,1.9,11.6,1.9c9.1,0,14.1-4.6,14.1-10.9&#10;&#9;&#9;c0-6.7-5.9-9.5-11.2-11.8c-4.4-1.9-9.2-4.4-9.2-8.8c0-3.1,2.2-6.1,7.4-6.1c4.6,0,8.8,1.6,10.2,6.3h1.1l0.1-7.9&#10;&#9;&#9;C648.1,536.1,645.5,534.8,640.3,534.8L640.3,534.8z M503,534.9c-12.2,0-20.5,8.5-20.5,20.4c0,11.2,6.6,20,20.8,20&#10;&#9;&#9;c6.8,0,10.9-2.3,13.8-1.9l0.4-8.6h-1.1c-1.9,5.6-6.4,7.7-12.5,7.7c-10.8,0-14.7-9.6-14.7-17.3c0-9.4,4.8-17.3,13.8-17.3&#10;&#9;&#9;c5.3,0,10.4,2.6,12.6,7.7h1.1l-0.3-8.6C512.6,537,508.9,534.9,503,534.9L503,534.9z M683.9,534.9c-12.2,0-20.5,8.5-20.5,20.4&#10;&#9;&#9;c0,11.2,6.6,20,20.8,20c6.8,0,10.9-2.3,13.8-1.9l0.4-8.6h-1.1c-1.9,5.6-6.4,7.7-12.5,7.7c-10.8,0-14.7-9.6-14.7-17.3&#10;&#9;&#9;c0-9.4,4.8-17.3,13.8-17.3c5.3,0,10.4,2.6,12.6,7.7h1.1l-0.4-8.6C693.5,537,689.9,534.9,683.9,534.9L683.9,534.9z M780,534.9&#10;&#9;&#9;c-12.2,0-20,9.2-20,20.3c0,11.2,7.8,20,20,20c12.2,0,20-8.9,20-20C800,544,792.2,534.9,780,534.9L780,534.9z M828.7,534.9&#10;&#9;&#9;c-12.2,0-19.9,9.2-19.9,20.3c0,11.2,7.7,20,19.9,20c12.2,0,19.9-8.9,19.9-20C848.7,544,840.9,534.9,828.7,534.9z M396.7,535.3&#10;&#9;&#9;c-0.7,0.3-2.1,0.3-2.8,0.3h-24.4v1.1c2.4,0.4,3.4,1.6,3.4,3.4v29.6c0,2.1-1.3,3.1-3.4,3.6v1.1l6.6-0.2h12.3c4.2,0,6.4,0,10.1,0.3&#10;&#9;&#9;l1.1-8l-1.1-0.2c-1.2,2.9-2.7,5-7.6,5h-11.8v-15.7h8.4c1.2,0,2.6,0.1,3.2,0.3c1.8,0.4,2.5,1.6,3,3.2h1.1c0-1.3-0.1-4.1-0.1-4.9&#10;&#9;&#9;c0-0.8,0-3.4,0.1-4.6h-1.1c-0.3,1.6-1.2,2.6-3,3c-0.6,0.2-2,0.2-3.2,0.2h-8.4v-14h10.3c4.8,0,6.1,2,7,4.4h1.1l0.1-7.8H396.7z&#10;&#9;&#9; M427.8,535.3c-4.1,0-9.2,0.4-11.1,0.4c-1.1,0-5.4-0.2-6.7-0.2v1.1c2.2,0.4,3.5,1.2,3.5,3.3v29.9c0,2.2-1.3,3-3.6,3.5v1.1l6.4-0.2&#10;&#9;&#9;c1.9,0,6.6,0.3,10.7,0.3c14.2,0,22.8-8.5,22.8-19.8C449.9,543,441.6,535.3,427.8,535.3z M540.7,535.4c0,0-0.6,2.5-1.1,3.8&#10;&#9;&#9;L527.2,569c-0.9,2.1-2.2,3.7-4.7,4.3l-0.1,1l5.7-0.1c0.8,0,4.1,0.1,5.3,0.1l0-1c-2.2-0.6-2.7-1.4-2.7-2.5c0-0.7,0.3-1.7,0.7-2.5&#10;&#9;&#9;l2.5-6.4h14.5l2.8,6.3c0.4,0.9,0.7,1.8,0.7,2.6c0,1-0.6,1.9-2.5,2.4l-0.1,1c1.4,0,5.6-0.1,6.6-0.1c1,0,5.4,0.1,6.8,0.1l0-1&#10;&#9;&#9;c-2.6-0.7-3.6-2.1-4.5-4.2l-13.1-29.9c-0.5-1.2-1.2-3.8-1.2-3.8H540.7z M709.3,535.5v1.1c1.9,0.5,3.1,1.3,3.1,3.3v30&#10;&#9;&#9;c0,2.1-1.3,2.9-3.1,3.3v1l6.2-0.1c1.2,0,5.5,0.1,6.4,0.1v-1c-1.9-0.5-3.1-1.3-3.1-3.3v-14.2h22.2v14.2c0,2.1-1.2,2.9-3.1,3.3v1&#10;&#9;&#9;c1,0,5.2-0.1,6.4-0.1l6.2,0.1v-1c-1.9-0.5-3.2-1.3-3.2-3.3v-30c0-2.1,1.4-2.9,3.2-3.3v-1.1l-6.2,0.2c-1.2,0-5.4-0.2-6.4-0.2v1.1&#10;&#9;&#9;c1.9,0.4,3.1,1.3,3.1,3.3v12.6h-22.2v-12.6c0-2.1,1.3-2.9,3.1-3.3v-1.1c-0.9,0-5.3,0.2-6.4,0.2L709.3,535.5z M459,535.6v1.1&#10;&#9;&#9;c2.3,0.5,3.5,1.6,3.5,3.6v29.5c0,2.1-1.1,3.1-3.5,3.6v1.1c1.3,0,5.7-0.2,6.8-0.2l6.6,0.2v-1.1c-2.4-0.5-3.5-1.6-3.5-3.6v-29.5&#10;&#9;&#9;c0-2.1,1.2-3.1,3.5-3.6v-1.1c-1.3,0-5.6,0.1-6.6,0.1L459,535.6z M570.3,535.6v1.1c2.3,0.5,3.5,1.6,3.5,3.6v29.5&#10;&#9;&#9;c0,2.1-1.2,3.1-3.5,3.6v1.1c1.3,0,5.7-0.2,6.7-0.2h12.4c4.2,0,6.4,0,10.1,0.3l1.1-8l-1.1-0.2c-1.2,2.9-2.7,5-7.7,5h-11.8v-31&#10;&#9;&#9;c0-2.1,1.2-3,3.5-3.6v-1.1l-6.6,0.1L570.3,535.6z M857.7,535.6v1.1c2.3,0.5,3.5,1.6,3.5,3.6v29.5c0,2.1-1.1,3.1-3.5,3.6v1.1&#10;&#9;&#9;c1.3,0,5.8-0.2,6.8-0.2h12.4c4.2,0,6.4,0,10.1,0.3l1.1-8l-1.1-0.2c-1.2,2.9-2.7,5-7.7,5h-11.7v-31c0-2.1,1.2-3,3.5-3.6v-1.1&#10;&#9;&#9;c-1.3,0-5.6,0.1-6.6,0.1L857.7,535.6z M311.8,535.6v1.1c2.3,0.4,3.4,1.5,3.2,3.4l-2.2,28.8c-0.2,2.3-1.4,3.9-3.9,4.5v1l5.5-0.1&#10;&#9;&#9;c0.8,0,4.1,0.1,5.4,0.1v-1c-2.6-0.7-3.3-2.2-3.2-3.9l1.7-25.6l13.2,30.6h2.2l13.4-30.7l1.7,25.7c0.1,1.7-0.6,3.2-3.2,3.9v1&#10;&#9;&#9;c1.3,0,5.9-0.1,6.7-0.1l6.7,0.1v-1c-2.5-0.6-3.7-2-3.9-4.5l-2-28.8c-0.2-1.9,0.7-2.9,3.1-3.4v-1.1c-1.5,0-4.1,0.1-5.1,0.1&#10;&#9;&#9;c-0.9,0-2.8-0.1-4-0.1l-12.8,29.8l-12.7-29.8c-1.2,0-3.3,0.1-4.2,0.1C316.3,535.7,313.3,535.6,311.8,535.6L311.8,535.6z M780,537.7&#10;&#9;&#9;c9.1,0,13.1,8.5,13.1,17.5c0,9-4,17.2-13.1,17.2c-9.1,0-13.2-8.2-13.2-17.2C766.8,546.2,770.9,537.7,780,537.7L780,537.7z&#10;&#9;&#9; M828.7,537.7c9.1,0,13.1,8.5,13.1,17.5c0,9-4,17.2-13.1,17.2c-9.1,0-13.1-8.2-13.1-17.2C815.6,546.2,819.6,537.7,828.7,537.7&#10;&#9;&#9;L828.7,537.7z M425.9,537.9c10.9,0,17.2,7,17.2,17.1c0,10.2-6.1,16.7-17.6,16.7c-2.1,0-4.4-0.2-5.8-0.4v-33&#10;&#9;&#9;C421.2,538,423.8,537.9,425.9,537.9L425.9,537.9z M541,544.4l6.2,14.4h-11.9L541,544.4z" class="st1"/>
	<path d="M223.7,561L223.7,561l0.1,0L223.7,561L223.7,561c-0.5-0.5-1.1-1.3-1.5-1.6c-0.6-2.8,3.8-4.7,1.6-7.8&#10;&#9;&#9;c-0.5-1.8-0.1-4.1-1.9-5.5c-1.3-1-3-1.2-4.4-2.2c0-0.7,1-0.5,1.5-0.7c2.3-0.6,4.4,2.2,6.1,0.1c0.2-1.6-1.3-3-2.3-4&#10;&#9;&#9;c-3.5-2.4-8.8-1.5-11.4-5.2l0.3-0.3c3.4,0.7,7,0.1,9.6-2.1c1.5-1.9,3-3.8,5.3-4.4c2.3-1.8,2.6-4.7,2.6-7.7c0.1-1.2,0.6-2.2,1.5-3&#10;&#9;&#9;c1.3-1.2,4.5-0.7,3.9-3.2c-1.8-0.9-3.7-1.8-5.8-1.6c-1-0.5,0.2-1.3,0.5-1.7c3.4-2.2,8.7-3.6,8.4-8.5c-0.3-0.5-0.2-1.4-1.1-1.5&#10;&#9;&#9;c-1.5,0.2-2.3,1.6-3.7,2.2c-3.2,1.8-7.2,1.5-10.2,3.4c-0.7,0-0.4-0.8-0.2-1.1c1.1-1.6,3.5-1.7,4.3-3.7c0.6-1.6,0.9-3.7,2.7-4.3&#10;&#9;&#9;c1.1-0.8,2.8-0.8,3.4-2.1c-0.1-0.7-1-1.2-1.6-1.4c-3.1-1-6,0.8-8.1,2.9c-2.2,1-4.7,1.8-6.4,3.6c-0.3,0.1-0.8-0.1-0.8-0.7&#10;&#9;&#9;c-0.4-4.2,3.4-7.3,6.1-9.8c2-0.5,3.7-3,6-1.9c1.6,0.9,3.3,1.7,5.1,1.1c2.3-0.8,2.9-3.5,5-4.7c1.6-0.5,3.8,1.8,4.7-0.4&#10;&#9;&#9;c0.5-2.3-1.4-3.7-2.4-5.4c1.3-3.3,0.3-7-2.3-9.4c-1.3-0.7-2.8-1.3-4.3-0.8c-1.2,1.5,1.1,2.4,1.2,3.9c0.5,6-6,7.4-9.9,9.9&#10;&#9;&#9;c-7.4,3.7-16.3,9.4-16.8,18.8c0.1,5.3,2.3,9.9,5.9,13.6c1.9,3.3,5,6.3,3.8,10.4c-0.7,1.7-2.7,1.9-4.3,1.9&#10;&#9;&#9;c-6.3-0.4-9.8-7.5-12.4-12.3c-0.8-1.9-1.9-3.7-2.1-5.9c0.3-0.3,0.6-0.2,1,0c1.2,1.1,1,3.6,3,3.3c1.6-2.2,0.4-4.9-0.4-7.1&#10;&#9;&#9;c-1.1-2-3.6-3.1-4.6-5.2c-0.1-1.6,2.2-0.6,2.3-2.2c-0.9-2.7-1-5.6-0.6-8.1c0.4-1.1,2.1-1,2.1-2.5c-0.7-2.6-0.7-5.3-0.6-8.1&#10;&#9;&#9;c0.3-1.7,1.7-3.5,0.7-5.3c-1.9-0.5-0.3-2.8-2.1-3.4c-3.6,0-6.2-1.9-9.3-3c-1.6-0.4-2.7,0.5-4,0.8c-2,0.4-4.1,0.4-5.5,1.9&#10;&#9;&#9;c-1,1.2-0.7,2.4-0.7,4c-0.3,1-1.1,0.1-1.6,0c-1.5-0.9-2-2.4-1.6-4c0.2-0.7-0.1-1.5-0.7-2c-1-0.6-2.3-1-3.5-0.5&#10;&#9;&#9;c-1.5,0.5-1.9,2.2-2.5,3.5c-0.1,1,0.1,2.3,0.6,3.1c2.1,2.2,5,3,7.4,5c0.4,1.3-0.4,2.5-1.3,3.6c-0.1,1.2,1.6,1.2,1.4,2.2&#10;&#9;&#9;c-1.7,0.4-3.4,0.1-4.6-0.9c-0.8-0.7-1.1-2.3-2.4-2.5c-1.3,0-1.5,1.7-2,2.5c-0.4,0.9-0.1,2.5-0.9,3.3l-1-0.1&#10;&#9;&#9;c-4.3-1.5-8.2-3.8-12-6.6c-2.2-1.7-3.8-4.2-5.5-6.4c-0.8-2.6-1.3-6.3-4.6-7.1c-0.7,0.1-1.7,0.2-1.8,1l-0.2,1.1&#10;&#9;&#9;c-1.7,0-3.4-1.2-5.1-0.5c-0.8,0.5-1.7,1.2-2.2,2c-0.1,1.9,2.2,1.2,2.5,2.7c0,1.4,1.1,2.5,1.7,3.5l-1.7,1.9l-1,2.6&#10;&#9;&#9;c0.4,0.8,0.9,1.9,2,2c1.5-0.6,2.7,0.4,4.3,0.2c0.9,0.1,2.5-0.7,2.6,0.8c0.5,1.3,0,2.4-0.1,3.6c-1.3,1.9-3.1,3.4-5.2,4.4&#10;&#9;&#9;c-0.6,0.4-0.6,1.4-0.4,2c0.7,1,2.4,0.6,3.6,0.5c2.2-0.1,3.9-1.4,6-1.6c0.5,1.1,1.4,2.3,2.4,2.8c1.7,0.4,2.1-1.9,3.8-1.3&#10;&#9;&#9;c1.4,1.1,1,3.1,2.2,4.3c0.1,0.7-0.6,0.7-1.1,1c-1.8,0.6-4.3,0-5.7,1.5c-0.2,0.8,0.5,1.6,1.1,1.9c1.6,0.8,3.6,1.1,5.5,1.4&#10;&#9;&#9;c1.7,0.2,3.5-0.4,5,0l-0.5,0.8l-5.1,3.5c-2.3,1-4.8,1.5-7,2.6c-3.3,0.8-4.6-3.3-7.6-3c-1.3,0-2.1,0.4-3,1.2&#10;&#9;&#9;c-0.7,0.7-0.8,1.9-0.6,2.8c0.4,0.9,1.8,0.5,1.8,1.6c-0.1,3-2.7,5.1-2.8,8.1c-0.1,0.7,0.1,1.7,0.9,2c0.5,0.3,1.4,0.1,1.8-0.3&#10;&#9;&#9;c0.6-0.6,0.6-1.6,1.7-1.8c1.8,0.2,3.7,0.2,5-1.2c0.6-0.1,1.3,0.5,1.3,1.1c0,0.7,0,1.6,0.7,1.9c2.6,0.1,3.9-2.6,5.1-4.5&#10;&#9;&#9;c1.2-0.2,2.4-1.1,3.6-0.3c0.4,1.8-1,3.1-1.3,4.7c0.1,0.4,0.6,0.8,1.2,1c3.1-0.4,5-3.4,6.8-5.7c0.3-0.6,0.6-1.5,1.6-1.5&#10;&#9;&#9;c2.4,0.7,3-2.2,4.5-3.3h0.6c0.2,0.7-0.3,1.3,0,2c1,1.1,2.2-0.1,3.3-0.3l2.2-1.4c2.6,0.8,5.4,1.5,8.1,2.1c2.2,0.8,0,3.2,1.4,4.5&#10;&#9;&#9;c-0.3,0.7-1.3,1-2.2,1c-4.6,0.6-10-0.6-13.7,2.8l-2.2,2.2c-3.4,0.1-5.3,3.1-8.4,3.6c-2.1,1.5-5.4-0.6-6.7,1.8c1,2.2,3.7,3,6,3.6&#10;&#9;&#9;c1,0.4,2.5-0.1,3,1c0.1,1,0.3,2.3,1.6,2.7c1,0.3,1.5-1.1,2.3-0.3c1.1,1.6,2.8,2.3,3.8,3.8c-0.7,1.4-2.5,0.5-3.8,0.5l-0.2-0.1&#10;&#9;&#9;c-1.9,0.2-4.3,1.2-5.8-0.6c-2-1.5-3.6-3.8-6.4-3.8c-1.6,0.4-3.3,1-3.6,2.8c-0.2,1.1,0.8,1.5,1.3,2.1c-1.9,1.3-3.9,3.3-3.3,5.8&#10;&#9;&#9;c0.2,0.5,0.4,1.2,1.2,1.2c1,0,1.7-0.8,2.6-0.3c0.2,1.6-0.2,4,1.7,4.8c1.5-0.2,2.5-1.8,4.1-0.6c1.6,0.7,2.8-0.7,4.2-1.2&#10;&#9;&#9;c2.2,0,3,2.1,3.8,3.7c1.4,1,3.3,2.7,5.2,1.7c1.3-1.8-1.1-4.1,1.3-5.3c1.5-0.4,2.7,0.1,4.2-0.2c2.3,0.2,5.1,0.4,6.4-2.1l2.1-3.6&#10;&#9;&#9;l0.4-2.2c1.4-0.4,3.4,1.8,4-0.3c-0.7-2.1-1-4.3-0.6-6.5c0.4-1.6,1.1-3.1,2.2-4.1l0.5,0.2c0.6,2.6,0.7,5.3,1.9,7.7&#10;&#9;&#9;c-0.2,2.4-1.5,4.5-1.8,6.9c-0.6,2.5-2.4,4.6-4.7,5.7c-0.5,0.4-1,1.2-0.6,1.9c0.6,1.2,2.2,0.5,3.4,0.7c3.3-0.4,6.3-2,8.5-4.4&#10;&#9;&#9;c2.3,0.6,3.5-2.2,5.6-1c2.2,1.7,6.2-1.3,7.1,2.3c-0.3,1.7,1.3,4.7-1.5,5.5c-2.7-0.4-5.9-4-8.6-0.8c-0.7,0.6-1.1,1.5-0.7,2.3&#10;&#9;&#9;c0.4,0.7,1,1.7,0.2,2.3c-0.7,1.3-1.8,2.9-1.2,4.4c0.5,0.9,1.6,0.9,2.5,0.7c1.6-0.6,3.1,0.7,4.6,0.8c1.4,1.1,2.7,2.3,4.5,2.2&#10;&#9;&#9;c0.7-0.4,0.6-1.4,1.2-2c1.2-1,3.6-0.7,3.6-2.8c0.3-1.6,1.7-3,3-3.8C219.8,563.3,222.9,562.5,223.7,561L223.7,561z" class="st3"/>
	<path d="M174.5,468c-1,0.2-1.4,1.3-1.6,2.3c-0.2,1.4,0.5,2.4,1.6,3.2c2.7,1.3,5.1,3.4,7.7,5.1h0.9&#10;&#9;&#9;c-1.4-2.9-4.8-3.5-7-6c-0.8-1.1-0.9-2.5-0.5-3.9C175.5,468.2,175,467.9,174.5,468z M189.5,468c-1.9,1.4-4.7,0.6-6.5,1.9&#10;&#9;&#9;c-1.1,0.9,0.7,2.1-0.7,3c-0.2,0.7,0.1,1.2,0.5,1.8c1.8,1.6,4.1,3.4,3.3,6c-1.3,3.2-3.1-0.6-4.9-0.7c-0.6,0.1-1.1,0.7-1.1,1.4&#10;&#9;&#9;c0.2,0.4,0.6,0.4,1.1,0.4c0.4,0.2,1,0.6,0.9,1.2c-0.1,1.4-1.1,2.7-2.6,3c-1.7,0.7-3.8,0.3-5.4-0.5c-0.9-0.3-1.3-1.7-2.5-1.6&#10;&#9;&#9;c-1.5,1.5-0.2,3.3,0.2,4.9c-3.6,3.6-6.5,8.4-10.9,11c-1.1,0.6-2.5,0.8-3.5,1.8c0.4,0.3,1,0.5,1.8,0.5c3.8-0.1,7.7-0.7,10.9-2.6&#10;&#9;&#9;c1.3-0.6,2.1-2,3.5-2.3c1.7,0.7,0.1,2.5,0.9,3.7c1,0.3,1.3-0.6,1.9-1.1c0.5-0.3,1.2-0.6,1.6,0.2c1.4,3.9,0.3,8.1-1,11.6&#10;&#9;&#9;c0.8,0.2,0.9-0.7,1.6-0.9c2.6-3.8,5.7-7.4,6.5-11.9c2.2-1,2.1,2.3,3.5,3.2c1.2-0.8,1.2-2.8,1.4-4c0.3-0.4,0.7-0.3,1.1,0&#10;&#9;&#9;c1.1,1.9,2.6,4,4.6,5.1c1.3,0.4,2.5,1.3,3.9,1.2c-0.1-1.8-2-2.1-3-3.5c-0.5-1.3-1.2-2.4-1.2-4c0.3-1,1.5-0.9,2.1-1.2&#10;&#9;&#9;c0.1-1.4-0.3-2.7,0-4c0.2-1.7-1.1-5.1,1.6-6l0.2-4.2c-0.1-0.6-1.1-0.9-1.1-1.6c0-1.2,1.1-1.4,1.4-2.3c0.3-1,0.6-2.1,0.7-3.2&#10;&#9;&#9;c0-0.3-0.4-0.7-0.7-0.7c-1.3-0.1-1-1.5-1.4-2.1C195,470.6,192.8,468.1,189.5,468L189.5,468z M146.2,468.7c-0.2,0.1-0.3,0.5-0.4,1&#10;&#9;&#9;c-0.2,0.5,0.1,1.4,0.7,1.9c0.3,0.2,0.8,0.6,1.2,0.2c0.2-0.4,0.1-0.9,0-1.4C147.8,469.8,146.8,468.4,146.2,468.7z M140.8,469.6&#10;&#9;&#9;c-0.6,0.6,0.2,2,0,3c0.2,1.6,2.1,1,3,2.1c1.3,2.1-1.7,2.2-2.5,3.5c-1,1.5,1.2,0.9,1.8,2.1c1.3,0.6,2.1-0.8,3.3-0.7&#10;&#9;&#9;c1.3,0.5,2.1,2,2.5,3.3c1.3,3.1-1.3,5.6-2.6,7.9c2.1,0.3,3.7-1.7,5.4-2.5c1.6,0.4,0.2,2.3,1.2,3.2c1,0.7,1.9-0.6,3-0.5&#10;&#9;&#9;c3.3,0.1,3,3.8,4.9,5.6c0.3,0.2,0.8,0.3,1.2,0.2c1.9-1.7,3.3-3.9,5.1-5.8c0.6-0.6,1.3-1.4,1.1-2.3c-5.5-1.5-10.2-4.8-14.7-8.6&#10;&#9;&#9;c-2-2.4-4.2-5.3-7-6.7C144.9,471.9,143.3,469.4,140.8,469.6z M188.8,470.1c0.3,0,0.6,0.2,0.9,0.4c1.1,0.6,2.1,1.7,3,2.6&#10;&#9;&#9;c0.2,0.7-0.3,1.3-1.1,1.4c-1.3,0.1-2.6-0.1-3.5-1.1c-1-0.7-0.4-1.9-0.2-2.8C188.2,470.4,188.5,470.1,188.8,470.1L188.8,470.1z&#10;&#9;&#9; M237.4,471.2c-0.2,0.5-0.3,0.9-0.2,1.4c-0.3,5.2-5.5,7.9-9.5,10c-7.3,3.5-16.3,8.4-17.2,17.4c-0.9,9.5,11.2,14.3,9.8,23.8&#10;&#9;&#9;c-0.3,2-2.1,3.2-3.5,4.4c-5,1.5-10-1.7-13.1-5.8c-4.1-4.9-6.2-10.6-7.7-16.7c-1.1-1.3-2.8-1.7-3.9-3.2c-2.3-1.1-2.2,2.5-4.4,2.5&#10;&#9;&#9;c-1.2,0.1-0.8-1.5-1.9-1.2l-2.8,4c-0.7,1.5-2.6,2.5-2.8,4.2c0.8,1.6,3.3,0.9,4.9,1.4c2.4,0.4,4,2.5,6,3.7c3.6,3.3,4.8,7.8,4,12.6&#10;&#9;&#9;c-1.1,4.1,0.5,8,1.8,11.6c0.7,1.6-0.4,3-1.2,4.2c-0.4,2.2-1.1,4.4-2.1,6.5c-0.3,0.8-1.1,1.7-0.7,2.5c3.1-0.5,4.9-3.4,6.1-6&#10;&#9;&#9;c0.6-0.7,1.4,0,1.9,0.5c0.7,0.3,0.9-0.4,1.4-0.5c0.7-0.3,1.2,0.1,1.8,0.5c1.4,1.4,3.5,0.7,5.4,1.2c2,0.2,4,1.5,4.6,3.5&#10;&#9;&#9;c-0.3,1.6,0.5,3.1,0.3,4.9c-1.3,3.8-5.8,4.3-9.3,4.7c-0.7,0.4-1.7,0.8-1.6,1.8c0.3,0.7,1,1,1.8,1.4c1.6,0.9,2.2-1.3,3.7-1&#10;&#9;&#9;c1.2,0.4,0.2,1.5,0.9,2.3c0.9,0.2,1.6-0.2,2.6-0.2c1.3-0.2,2-1.3,2.1-2.6c0.5-1.5,2.6-1.9,3.3-3.5c0.6-0.4,1.6,0.2,2.3-0.3&#10;&#9;&#9;c-1.2-2.2-0.2-4.5,1.2-6.1c0.3-1.4,0.1-2.8-0.7-4v-2.5c-0.7-1.9-3-1.7-4.6-2.5c-1.6-1.3-4.1-2.1-4.4-4.4c0.1-0.3,0.4-0.8,0.7-0.7&#10;&#9;&#9;c2.1,0.8,4.6,0.5,6.7,0.2c0.6,0.1,1.6,0.4,1.6-0.4c-0.2-0.4-0.6-0.8-1-0.9c-3.4-1.1-7-1.1-9.6-3.7c-1-1.8-2.8-3-3-5.1&#10;&#9;&#9;c1.8-2,3.5,0.9,5.6,0.7c3,0.3,5.9-0.3,7.7-2.6c1-0.9,0.9-2.7,2.5-3.2c5.4-1,2.2-7.3,5.4-10.2c0.4-1,2.3-1,1.9-2.1&#10;&#9;&#9;c-1.8-0.2-3.2,0.7-4.9,0.9c-0.5-0.2-0.8-0.6-0.9-1.1c1.1-3.5,4.4-6.4,7.9-7.5c0.4-0.1,1.1-0.7,0.9-1.1c-4.1,0.2-8.3,0.7-11,4&#10;&#9;&#9;c-0.7,0.4-1.5,1.3-2.3,0.7c-0.7-0.7-0.6-2-0.5-3c0.2-1.9,1.7-3.5,3.2-4.7c2-0.6,2.9-2.8,3.5-4.6c-0.1-0.4-0.5-0.2-0.7-0.2&#10;&#9;&#9;c-1.4,0.8-2.9,1.4-4.4,1.9c-2.5,0.5-3.3,3-4.4,4.9c-0.4,0.2-1,0.2-1.4,0c-1.7-1.9-1.8-4.5-1.2-6.8c1.4-6.1,6.9-9.7,12.1-12.1&#10;&#9;&#9;c2-0.8,3.4,0.9,5.1,1.2c4,0.1,4.6-5.1,8.6-5.3c0.1-0.9-1.1-1.3-1.6-2.1c-0.4-1.6,1.2-2.5,0.9-4.2&#10;&#9;&#9;C238.9,473.5,238.9,471.7,237.4,471.2L237.4,471.2z M197.3,474.3c0.4-0.3,1.3-0.1,1.4,0.5c0,0.8-0.4,1.6-0.9,2.3&#10;&#9;&#9;c-0.5,0.3-1,0.2-1.2-0.4C196.3,475.8,196.7,474.9,197.3,474.3z M190.9,481.8c0.4-0.1,0.8,0.2,1.1,0.5l-0.2,1.8&#10;&#9;&#9;c-1.8,2-1.8,5.2-4.6,6.3c-0.7,0.1-1.3-0.3-1.4-1.1c-0.1-1.1-0.4-2.7,0-3.9c1.2-0.6,1.5,1.8,2.5,0.7&#10;&#9;&#9;C188.7,484.6,190.1,483.2,190.9,481.8z M171.8,501.1c-0.6,0-1.1,0.1-1.8,0.4c-4.1,4-8.4,8-13.7,10c-3.4,0.6-5.9,2.8-9.3,3.5&#10;&#9;&#9;c-1.7,1-4.3,1.2-4.6,3.7c0.8,0.4,1.7,0.7,2.8,0.7c1.4,0,1.6-1.4,2.5-2.3c0.5-0.5,1.1-0.2,1.6,0.2c0.4,1.3,1.7,1.5,2.6,1.9&#10;&#9;&#9;c0.9-0.1,1.2-1,1.4-1.8c0.8-1.6,2.8-1.7,4.4-1.6c0.7-0.3,1.6-0.8,2.5-0.7c2,0.4,0.9,2.9,1.1,4.2c0.3,0.3,0.9,0,1.2-0.2&#10;&#9;&#9;c1.5-1.6,2.3-3.4,3.2-5.4c0.4-0.4,0.9-1.4,1.8-1.1c2,2.6,2.3-1.3,3.9-1.8c1.1-0.5,2.8,0.4,3.9-0.7c1.1-1.9,1.2-4.5,1.4-6.7&#10;&#9;&#9;c-0.5-1.6-2-0.1-3.2-0.4C172.2,503,172.2,502,171.8,501.1z M144.1,510.3c-0.1,0.1-0.3,0.3-0.4,0.5c0.1,1-0.3,2,0.4,2.6&#10;&#9;&#9;c1.2,0.5,2.7,0.1,3.7-0.5c0-1.3-1.5-1.5-2.3-2.3C145.1,510.4,144.6,510,144.1,510.3z M190.4,522.5l-5.3,1.6&#10;&#9;&#9;c-5.3,0.2-11.5,0-14.6,4.9l-3,0.3c-2,1-3.9,2.4-6.1,2.8c-0.6,0.4-1.7,0.2-1.9,1.1c1.4,1.1,3.3,0.3,4.9,0.3c0.8,0.3,1,1.4,1.2,2.1&#10;&#9;&#9;c0.8,0.4,1.4-0.7,2.3-0.3c0.5,0.2,0.8,0.7,1.1,1.2c0.4,2.7,3.8,3.3,4.9,5.6c0.5,0.8,0.2,2-0.4,2.8c-0.8,1.1-2.5,0.8-3.9,0.7&#10;&#9;&#9;c-2.5-0.1-4.7-0.7-7,0.2c-3.6,0.6-7.1-1.6-10.2,0.4c-0.2,0.2-0.4,0.7-0.2,1.1l3.7,1.6c0.5,0.6-0.3,1.5-0.2,2.1l1.9,0.5&#10;&#9;&#9;c1.4,1.2,2.7-0.2,3.9-0.9c1.4-1,2.5,0.3,3.7,0.7c0.7,0.4,1.8-0.1,2.3,0.7c0.7,0.8,0.3,2.9,1.8,2.6c0.4-1,1.1-2.1,1.9-2.8&#10;&#9;&#9;c2.5-2.2,5.8-0.8,8.9-1.2c2.1-0.2,1.6-2.7,3.2-3.5c1-1.8-0.8-2.8-1.8-4.2c-0.7-1.7,0.4-3.6,1.6-4.9c2.2-0.4,2,2.4,2.8,3.7&#10;&#9;&#9;c0.3,0.3,0.9,1,1.4,0.5c0.1-1.7,0.2-3.3,0.2-5.1c0.6-2.5,2.4-4.8,4.2-6.5c0.9-1.4,0.9-2.4,1.1-4&#10;&#9;&#9;C192.6,525.1,192.2,522.9,190.4,522.5L190.4,522.5z M156.4,541.3c-0.4-0.1-0.8,0-1.2,0.2c-0.1,0.6,0.2,1.8,0.9,2.3&#10;&#9;&#9;c1.1,0.1,2.2,0.5,3.2-0.2C158.7,542.5,157.6,541.5,156.4,541.3L156.4,541.3z M205.1,560.2c-0.2,0.1-0.3,0.3-0.3,0.5&#10;&#9;&#9;c0.2,0.2,0.3,0.5,0.7,0.3c0.2,0,1,0.2,0.9-0.3C206.2,560.4,205.5,560,205.1,560.2L205.1,560.2z" class="st4"/>
	<path d="M111.4,449.6h160.8v11.1H111.4L111.4,449.6L111.4,449.6z" class="st3"/>
	<path d="M231,451.6h18.3v7.1H231V451.6z M191.3,451.6h18.2v7.1h-18.2V451.6z M151.3,451.6h18.3v7.1h-18.3V451.6z&#10;&#9;&#9; M113.3,451.6h16.6v7.1h-16.6V451.6z" class="st4"/>
	<path d="M137.8,410.7c5.3-2.3,11.3-0.7,17.2-1c1.5,0.3,3.8-0.8,4.8,0.9c0,1.7,0,3.4,0.1,5.1c0.5,1.2,2.3,0.2,3.3,0.9&#10;&#9;&#9;c0.6,0.3,1.2,0.6,1.3,1.3c0.3,0.8,0.1,1.6-0.3,2.4c-1.1,1.2-2.5,0.8-3.9,1.1l-0.4,0.7c0.2,3.1-0.7,6,0,9c-0.1,0.7-0.3,1.5,0.4,2&#10;&#9;&#9;c1.5,0,3,0,4.1,1c0.4,0.8,0.4,1.7,0.2,2.6c-0.7,3.3-5.7-0.4-5.1,3.4c0,1.4,0.3,3.4-0.2,4.7c-5.9,0-11.9-0.4-17.4-0.1&#10;&#9;&#9;c-1,0.9-2.3,1.4-3.7,1.5c-1.2-0.2-2.1-0.9-3.1-1.5c-5.3-0.2-10.6-0.2-15.7-0.3c-1.6-1.4-0.4-3.7-1-5.8c-0.9-1-2.2-0.2-3.1-0.8&#10;&#9;&#9;c-0.8-0.1-1-0.9-1.4-1.4c0-1.2,0-2.2,0.9-2.9c0.9-0.7,2.1-0.5,3.1-0.7l0.5-0.5c-0.3-3.6,0.5-7-0.2-10.8c-0.6-0.8-1.5-0.1-2.2-0.7&#10;&#9;&#9;c-1-0.2-1.9-0.5-2.3-1.6c-0.2-0.9-0.4-1.8,0.4-2.5l4.4-1.1l0.4-5.2c0.9-1.5,2.9-0.8,4.5-0.8c2.6-0.5,5.9-0.1,8.7,0&#10;&#9;&#9;C134,409.6,136,409.9,137.8,410.7z" class="st5"/>
	<path d="M140.1,441.7c0.2,0.9,0.1,2-0.7,2.4c-0.4,0.5-1.3,0.7-2,0.3c-0.7-0.1-0.8-0.9-0.9-1.4c-0.2-1.2,1-1.6,1.6-2.5&#10;&#9;&#9;C139.2,440.6,139.7,441.2,140.1,441.7 M122.5,411.4c-1,0.7-2.3,2.2-1.8,3.5l0.4,25.9l0.8,0.9c4.3,0,9-0.4,13.1,0.3&#10;&#9;&#9;c0.2,0.1,0.2,0.4,0.1,0.7c-1.1,0.4-2.4,0.2-3.6,0.2l-11.1-0.2c-0.8-0.7-0.4-2.2-0.4-3c0-1.1,0.3-2.4-0.9-3.1&#10;&#9;&#9;c-1.5-0.3-3.1,0.1-4.1-1.1c0.8-2.2,4.3-0.4,4.9-2.8c0.3-4.1-0.3-8.1-0.1-11.9c-0.4-2.2-2.8-1.5-4.4-1.9c-0.2-0.2-0.5-0.5-0.4-1&#10;&#9;&#9;c1.3-1.3,3.9,0.2,4.9-1.6c0.4-1.8,0.1-3.4,0.3-5c0.5-0.5,1.5-0.5,2.3-0.3L122.5,411.4z M158.2,411.4c0.3,1.7-0.4,4,0.7,5.8&#10;&#9;&#9;c1.1,0.7,2.7,0.3,3.8,0.5c0.4,0.4,0.3,1.1,0.1,1.5c-1.2,1.2-3.7-0.3-4.4,1.6c0,4.2-0.2,8.4,0.1,12.8l0.7,0.5&#10;&#9;&#9;c1.4,0.2,3.2-0.3,4.1,0.7c0.1,0.7,0,1.3-0.6,1.5c-1.4,0.3-3.5-0.4-4.3,1.1c-0.3,1.8,0.2,3.5-0.3,5.2l-0.8,0.3l-15.4-0.2&#10;&#9;&#9;c-0.3-0.2,0-0.4,0.1-0.7l1.5-0.5l12.4,0.1c1.3-0.3,1.3-1.9,1.4-2.9l-0.1-17.3c-0.1-3,0.4-5.8-0.2-8.6c-0.1-0.7-1.1-1.1-1.2-1.8&#10;&#9;&#9;C156.6,410.8,157.8,410.8,158.2,411.4 M154.9,440.1c-0.3,0.7-1.3,0.3-2,0.5h-3.5c-2.8-0.1-5.7-0.3-8.2,0.2c-0.4-0.1-0.9-0.4-0.9-1&#10;&#9;&#9;c0.3-1,1.5-0.7,2.4-1c3.4,0.1,7.4-0.1,10.7,0C154,439.1,154.6,439.5,154.9,440.1 M156.1,413.4c-0.1,8.8,0.1,17.6-0.2,25.5&#10;&#9;&#9;c-0.2,0.4-0.7-0.1-1-0.3c-0.5-1.3-0.1-3-0.1-4.2c-0.3-7.1,0-14.3,0-21.5C155.2,412.3,155.9,412.9,156.1,413.4 M137,412l0.4,1&#10;&#9;&#9;c0.2,7.3,0.2,14.7,0.2,22.4l-0.2,2.8c-1.9,0.1-3.7-0.9-5.8-0.7c-2.1-0.2-4.4,0.2-6.2-0.3c-1.1-2.5-0.3-5-0.6-7.7&#10;&#9;&#9;c0.1-5.5,0.2-12.1,0.2-18c0-0.4,0.5-0.6,0.9-0.7C129.8,411.1,133.9,410.1,137,412 M153.2,411.5c0,8.8,0,17.3-0.1,25.9&#10;&#9;&#9;c-4.4,0.4-9.3-0.3-13.6,0.9c-1-0.9-0.2-2.3-0.4-3.5c-0.2-2.9,0-6-0.1-9c0.1-4.2-0.2-9,0.1-13.2c0.6-1.3,2.2-1.7,3.6-1.7l10.2,0.1&#10;&#9;&#9;L153.2,411.5z M136.6,439.7c0.1,0.5-0.4,1.1-1,1.3c-3.5-1-7.3-0.3-11-0.7l-0.1-0.1c0.2-0.7,0.8-1.2,1.5-1.2&#10;&#9;&#9;C129.7,438.9,133.3,438.9,136.6,439.7 M123.6,412.4c0.4,8.8-0.1,17.3,0.1,25.8c-0.1,0.4-0.6,1-1.1,1c-0.7-2.7-0.5-5.3-0.3-8.1&#10;&#9;&#9;c-0.2-5.6-0.1-11.8-0.1-17.3C122.4,413.1,123,412.6,123.6,412.4" class="st4"/>
	<path d="M211.4,409.5c0.7-0.1,1.3,0.4,1.9,0.8l0.4,5.8c1.4,0.6,3.5,0.1,4.2,1.8c0.3,0.8,0.3,2.1-0.2,2.7&#10;&#9;&#9;c-1.1,1.4-3.6,0.1-4.4,1.8c-0.2,3.9-0.3,6.7,0,10.3c1.1,1.1,3.1,0.2,4,1.6c0.5,0.7,0.8,1.4,0.5,2.3c-0.9,1.4-2.7,1.4-4.2,1.8&#10;&#9;&#9;c-0.7,0.5,0,1.5-0.3,2.3c-0.6,1.4,0.8,3.1-0.9,4c-4.5,0.7-8.7-0.2-13.3,0.1l-4.4,0.1c-1.2,0.8-2.6,2-4.1,1.1l-2.7-1.2&#10;&#9;&#9;c-3.3,0.1-6.3-0.1-9.6,0c-2.2-0.1-5.2,0.9-6.7-1.2c0-1.8,0.3-3.5-0.1-5.2c-1.6-0.5-4.4,0.2-5.2-1.9c-0.2-0.6,0-1.5,0.2-2.2&#10;&#9;&#9;c1.2-1.8,3.9-0.2,5.1-1.6l-0.1-4.8c0.3-2.3-0.1-4.2-0.1-6.3c-1.6-0.7-4.5,0.2-4.8-2.3c-0.2-1.3,0.5-2.4,1.8-2.6&#10;&#9;&#9;c1.1-0.3,2.6,0.2,3.2-0.8l0.3-5.1c1.3-2.2,4.5-0.9,6.4-1.2l9.9,0.1c1.5,0.2,3,1.7,4.5,0.8C198.7,408.1,205.3,410.2,211.4,409.5&#10;&#9;&#9;L211.4,409.5z" class="st5"/>
	<path d="M212.1,411.5c0,2-0.1,3.7,0.3,5.7c1.3,1.2,5-0.5,4.2,2.4c-1.2,0.8-2.8,0.2-4.1,0.4l-0.3,0.4&#10;&#9;&#9;c-0.5,4.4,0.3,8.8,0,12.8c0.1,0.4,0.3,1.2,1,1.3c1.2,0.1,3.1-0.7,3.5,0.8c-0.2,2.6-3.6,0.2-4.5,2.3c-0.3,2,0.5,3.7-0.2,5.6&#10;&#9;&#9;l-0.5,0.3c-5.6-0.1-11-0.1-16.2-0.2c-0.2-0.1-0.1-0.4,0.1-0.6l1-0.5l13.8-0.4c0.7-0.1,1.2-0.6,1.1-1.3c0-8.3,0.1-16.9,0.1-26.2&#10;&#9;&#9;c-0.2-1.3-1.5-2.1-1.7-3.3C210.2,411,211.6,410.5,212.1,411.5 M175.9,411.1c-0.2,1-1.1,1.3-1.5,2.1c-0.7,1.8,0.1,3.5-0.2,5.3&#10;&#9;&#9;l0.1,22c0,0.6,0.4,1.2,1,1.3l11.7,0.2c0.6,0.1,1.4,0.3,1.8,0.8c-0.2,0.7-1.1,0.4-1.6,0.5c-4.4-0.1-9,0.2-13.3-0.3l-0.4-0.3&#10;&#9;&#9;c-0.1-1.9,0.1-4-0.8-5.8c-1.3-0.5-2.9,0-4.4-0.4c-0.7-0.3-0.4-1.2,0-1.6c1.4-0.8,4.1,0.4,4.9-1.5c-0.1-4.3,0.2-8.3,0-12.7&#10;&#9;&#9;c-1.2-1.8-3.7-0.1-4.8-1.8c0.4-2.5,3.9-0.3,4.9-2.4l0.3-5.1C174.3,410.8,175.1,411,175.9,411.1 M193.2,442.7c0,0.9-0.1,2-1.1,2&#10;&#9;&#9;c-0.8,0.1-2,0-2-1.1c0.2-0.8,0.9-1.4,1.6-1.9C192.6,441.5,193,442.3,193.2,442.7 M177.5,412.6c0.3,7.5-0.4,14.3,0,21.8&#10;&#9;&#9;c-0.7,1.7,0.8,4.2-1.8,4.7c-0.4-7.5-0.1-15.6-0.3-23.8c-0.2-1.3,0.6-2.5,1.7-3.2L177.5,412.6z M209.9,413.9&#10;&#9;&#9;c-0.1,8.3,0.2,17.2-0.3,25.3c-0.4,0.1-1-0.4-1.1-0.9c-0.1-3.4-0.4-6.8-0.2-10.3c0.2-4.7-0.3-10.2,0.2-15.1&#10;&#9;&#9;C209,412.6,209.9,413.3,209.9,413.9 M189.9,439.7c0.4,0.1,1,0.5,0.7,1.1l-0.9,0.8c-3.8-1.4-8.6-0.4-12.7-1.1&#10;&#9;&#9;c0.3-0.5,0.7-1.1,1.2-1.5C182.1,439.2,186.2,438.7,189.9,439.7 M207.3,439.1c0.6,0.3,1.2,0.9,1.2,1.4l-0.5,0.2&#10;&#9;&#9;c-4.6,0.1-9.3-0.5-13.5,0.5c-0.7,0.1-1.4,0-1.5-0.7c0.4-1,1.7-1.3,2.8-1.4C199.6,438.8,203.5,439.1,207.3,439.1 M207,411.7&#10;&#9;&#9;c-0.1,8.5,0.1,17.3-0.1,25.8l-0.4,0.2c-4.7,0.4-9.3-0.8-13.5,0.8c-0.8-0.4-0.1-1.8-0.3-2.5v-22.7c0-0.8,0.5-1.4,1.2-1.6&#10;&#9;&#9;c1.2-0.8,2.8-0.5,4.4-0.7l8.6,0.2L207,411.7z M191,429c0.4-4.4,0.1-9.3,0.2-13.4c0-1.3,0.1-2.8-0.9-3.7c-3.2-1.4-7.4-0.6-11-0.8&#10;&#9;&#9;c-0.2,0.1-0.7-0.1-0.5,0.3l-0.1,25.2l0.2,1c2.6,0.4,5.2,0.2,8,0.2c1.4,0.2,2.8,0.7,4.1,0.9c0.1-3,0.3-5.2,0.1-8.1L191,429L191,429z" class="st4"/>
	<path d="M264.9,409.9c1.3,1.6,0.4,3.9,0.8,5.9c1.4,1.2,4.5-0.1,4.8,2.6c0.2,1.1-0.4,1.9-1,2.5c-1,1-2.7,0-3.6,1.1&#10;&#9;&#9;c-0.3,3.3,0,6.9,0,10.6c1,0.6,2.3,0.5,3.4,1.1c0.5,0.7,1.1,1.3,1.1,2.2c-0.1,0.9-0.7,1.5-1.5,1.9c-0.9,0.4-2.4,0-2.8,1.2&#10;&#9;&#9;c-0.4,1.7,0.1,3.7-0.2,5.5c-1.2,0.6-2.6,0.6-3.9,0.6l-12.8-0.1c-1.2,0.7-2.5,1.9-4.2,1.2c-2.7-1.7-6.4-1.2-9.6-1.3l-9.6-0.1&#10;&#9;&#9;c-1.8-1.5-0.4-4.1-1-6c-0.7-1.1-2.4-0.7-3.5-1.2c-1-0.4-1.2-1.5-1.1-2.4c0.1-1.1,1.1-1.6,2.1-1.9c0.8-0.4,2.2,0.3,2.5-0.8&#10;&#9;&#9;c0-3.4-0.2-6.7-0.1-9.8c-0.2-1.9-2.8-0.8-3.9-1.5c-1-0.6-1.1-1.8-0.9-2.9c0.9-1.9,3.1-1.4,4.7-2l0.2-0.5l0.2-5.7l0.6-0.4l14.9,0.3&#10;&#9;&#9;c1.8,0,3.3,0.8,4.9,1.3c3.2-2.4,7.9-1.2,11.7-1.9L264.9,409.9z" class="st5"/>
	<path d="M243.7,440c0.3,0.2,0.3,0.8,0,0.8c-1.3,1.5-2.9-0.3-4.7,0l-8.8-0.3c0.8-2.4,4.1-1,6-1.4&#10;&#9;&#9;C238.7,439.4,241.5,438.7,243.7,440 M259.7,439.4c0.5,0.3,1.1,0.9,1.2,1.4c-4.5,0.5-8.8-0.5-13.1,0.7c-0.7-0.1-0.9-0.9-0.7-1.3&#10;&#9;&#9;c0.9-1,2.3-0.8,3.6-1L259.7,439.4z M246.8,442.4c0.1,1,0.1,2.4-1.2,2.4c-0.9,0.1-1.6-0.3-1.9-1.1c-0.2-1.1,0.4-2.1,1.2-2.5&#10;&#9;&#9;C246,441.1,246.4,441.8,246.8,442.4 M228.5,411.3c-0.2,0.8-1.3,1.5-1.6,2.4c0.1,9,0,18.7,0.3,27.9l0.8,0.4c4.8,0.1,9.9-1,14.1,1&#10;&#9;&#9;c0.2,0.1,0.1,0.1,0,0.2c-5.2-0.1-10.5,0.3-15.6-0.1l-0.4-0.5c-0.2-2,0.2-3.8-0.7-5.6c-1.2-1.1-4.7,0.3-3.8-2.2&#10;&#9;&#9;c1.3-1,3.4,0.3,4.1-1.3c0-4.6,0.2-8.6-0.1-12.9c-1-1.3-2.8-0.4-4.1-0.8c-0.4-0.4-0.8-1.1-0.3-1.6c1.4-1.2,5.6,0.3,4.8-3&#10;&#9;&#9;c0.4-1.4-0.7-4.1,1.3-4.2C227.6,411,228.2,410.8,228.5,411.3 M264.1,411.5c0.4,2.1-0.4,4.2,0.8,6c1.3,0.3,3.4-0.4,4,0.9&#10;&#9;&#9;c-0.1,2.6-3.7,0.5-4.5,2.6c0.3,4.1-0.3,7.5,0.1,12c-0.4,0.3-0.5,0.8-0.2,1.2c1.2,1,2.7-0.7,3.9,0.4c0.8,0.2,0.3,0.9,0.3,1.3&#10;&#9;&#9;c-1,1.4-3.4-0.2-4,1.6l-0.2,5.5l-0.8,0.3l-14.5-0.1c-0.2-0.2-0.1-0.3,0.1-0.4l1.8-0.7h11c0.5-0.1,1.3-0.5,1.3-1.3&#10;&#9;&#9;c-0.1-9-0.2-17.9-0.2-26.9l-1.3-2.6C262.2,410.8,263.7,410.6,264.1,411.5 M230.1,414.9v23.4c-0.2,0.7-1,1-1.4,1.4l-0.4-0.3&#10;&#9;&#9;c-0.1-2.5,0.1-5.3-0.1-7.8v-1.9c-0.1-5.1-0.1-10.8,0.1-16c0.4-0.4,0.9-1.3,1.4-1.5C230.1,413.3,229.9,413.9,230.1,414.9 M262,413.7&#10;&#9;&#9;c-0.2,6.1-0.1,11.9,0.1,17.7c-0.1,2.7-0.1,5.1-0.1,7.6c-0.1,0.2-0.1,0.3-0.3,0.4c-1.9-0.8-1.2-2.9-1.3-4.5c0.1-2.3-0.2-4.9,0.2-7.2&#10;&#9;&#9;l-0.3-0.8l0.1-14.3C260.8,411.7,261.7,413.1,262,413.7 M259.1,414c0-1,0.1-2.2-0.4-3l-3.9-0.1c-2.8,0.5-6-0.4-8.3,1&#10;&#9;&#9;c-1.1,1.3-0.5,2.8-0.8,4.4c0.2,0.9,0.5,1.8,0.8,2.8l-0.5,1.2l-1.7-0.3l-0.4-0.9c0.2-0.7,0.4-1.3,0.5-2.1c-0.1-1.8,0.5-4.7-1.9-5.4&#10;&#9;&#9;c-3.6-0.3-7.1-0.4-10.7-0.4c-0.2,0-0.5,0.1-0.7,0.3l0.1,23.9c0,1-0.3,2.3,0.8,2.7c3.1-0.4,6,0.1,9.1-0.1c1.2,0,1.9,1.1,3.1,0.8&#10;&#9;&#9;c0.3-3.4,0.3-7.4,0.2-11.1c-0.1-0.3,0.1-1-0.4-1.2v-0.7l1.9,0.2l0.2,0.6l-0.2,0.2l-0.2,11.2c0.1,0.3,0.1,1.2,0.8,1.1&#10;&#9;&#9;c3.4-2,7.5-0.7,11.4-1.1l0.9-0.3c0.4-1.9,0.2-8.5,0.2-8.5C259.3,424.2,259.1,419.3,259.1,414 M246,424.5c-0.2,0.5-1.2,0.5-1.8,0.3&#10;&#9;&#9;l-0.5-0.2c0.3-1.2,0-2.6,1-3.5C245.6,421.8,245.5,423.3,246,424.5" class="st4"/>
	<path d="M189.9,428.6c-1.3-1.1-1.6-2.7-2.7-4.1c0.4-0.7,1.2-0.8,1.8-1.3c0.9-0.8,1.8-2.1,1.3-3.4&#10;&#9;&#9;c-0.1-1.1-0.7-2.2-1.8-2.7c-2.3-0.8-5.2-0.5-7.5-0.3c-0.4,0.2-0.5,0.6-0.2,1c0.9,0.3,1.2,1,1.3,1.8c-0.1,3-0.1,5.9-0.4,8.8&#10;&#9;&#9;l-1.2,1.3c1.2,1.1,2.9,0.2,4.6,0.5c0.4-0.8-0.8-1.3-1-2.2c0.2-0.9,0-2.1,0.5-2.8c1.6,1.4,2.2,3.7,4.1,5l2.6,0.2l-0.1-1.4&#10;&#9;&#9;C190.9,429.3,190.3,428.8,189.9,428.6 M186.5,423.3c-0.7,0-1.9,0.5-2.2-0.4c0.1-1.4-0.5-3.3,0-4.6c1-0.8,2.5-0.4,3.3,0.5&#10;&#9;&#9;c0.4,0.8,0.4,1.8,0.4,2.6C187.6,422.2,187.4,423.1,186.5,423.3 M246.5,426.3c0.4,0.7,0.7,1.3,0.7,2.2l-0.9,1.2l0.5,0.4&#10;&#9;&#9;c1.3-0.1,3,0.3,4.2-0.2c-0.3-0.7-1.1-0.9-1.5-1.3c-1.5-4-2.6-8.2-3.8-12.4l-1.3,0.6c-0.8,3.7-2.3,7.1-3.2,10.9&#10;&#9;&#9;c-0.2,0.7-1,0.8-1.5,1.3c-0.8,0.2-1.1-0.7-1.4-1.1c-0.1-3.3,0.3-6,0.1-9.5c-0.1-0.5,0.5-1.2,1.1-0.7c0.9,0.4,0.8,1.5,1.1,2.3&#10;&#9;&#9;c0.2,0.3,0.8,0.3,0.8-0.2l0.6-3.4c-0.4-1.1-1.4,0.1-2.3,0c-1.6-0.1-3.9,0.3-5.5-0.7c-1.3,0.4-1,2.3-1.2,3.5c-0.1,0.2,0,0.4,0.1,0.5&#10;&#9;&#9;c1.1-0.7,1.6-2.4,3.1-2l0.1,3.3l-0.3,7.1c-0.4,0.5-1.5,0.7-1.4,1.5c1.9,0.6,4.2,0,6,0.2c1.1,0.1,2.3,0.3,3.1,0&#10;&#9;&#9;c0.2-0.2,0.1-0.5-0.1-0.8c-0.7-0.3-1.4-0.9-1.2-1.7c0.3-0.5,0.4-1.6,1.4-1.3c0.2,0,0.3,0.1,0.4,0.3l1.6,0.2v-0.1&#10;&#9;&#9;C246.2,426.5,246.2,426.3,246.5,426.3 M244.2,424.8l-0.5-0.2c0.3-1.2,0-2.6,1-3.5c1,0.7,0.9,2.2,1.3,3.4&#10;&#9;&#9;C245.7,425,244.8,425,244.2,424.8 M256.5,417.4c0,0.8,0.6,2.2-0.1,2.8c-0.8-0.7-0.9-1.3-2.1-1.7c-0.7,0-1.3,0.1-1.5,0.9&#10;&#9;&#9;c-0.2,2.4,2.1,2.4,3.5,3.9c1.2,1.2,1.8,3.2,1.2,4.8c-0.5,1.3-1.1,2-2.3,2c-1.1,0.2-1.9-0.5-2.8-0.1c-0.2,0-0.7,0.2-0.9-0.1l0.1-4.3&#10;&#9;&#9;c0.1-0.2,0.3-0.3,0.5-0.3c0.7,1.4,0.2,3.1,2.2,3.2c0.7-0.1,1.2-0.2,1.3-1.1c0.2-3.9-4.9-2.9-4.8-6.9c0.1-0.9,0.2-1.7,0.7-2.4&#10;&#9;&#9;c0.9-1.5,2.9-0.6,4.2-1.5C256.3,416.3,256.3,417.1,256.5,417.4 M201.7,417.2c-1.1,0.5-2.3,1.4-2,3c-0.3,2.6-0.2,5.3-0.1,8.2&#10;&#9;&#9;l1.8,1.5l-0.1,0.2c-1.9,0-3.6,0.3-5.4,0c-0.8-0.8,1-1.3,1.3-2c0.3-3.1,0.7-6.2,0.3-9.6c-0.3-1-2-0.5-1.5-1.6c1.6-0.2,3.8-0.2,5.5,0&#10;&#9;&#9;L201.7,417.2z M148.8,419.3c-1.1,1.3-1.3-1.2-2.4-1.3c-0.7-0.1-1.6-0.3-2.2,0.2c-0.2,1.4-0.4,2.7,0,4.1c0.4,0.3,1.3,0.2,1.8,0.2&#10;&#9;&#9;c0.7-0.4,1-1.6,1.9-1.5c0.5,0.5-0.2,1.4,0.1,2c-0.2,0.8,0.5,1.8-0.4,2.2c-0.7-0.3-1-1.5-1.9-1.5l-1.5,0.1c-0.5,2-0.3,3.7,0,5.6&#10;&#9;&#9;c0.8,0.8,2,0.1,2.9,0.1c1.4-0.3,1.1-2.3,2.3-2.1c0.3,0.8,0.4,2,0.2,2.8l-0.7,0.4l-7.7-0.1c-0.3-0.1-1.1-0.1-0.8-0.7&#10;&#9;&#9;c2.5-1.5,1.1-4.5,1.4-6.9c-0.3-1.8,1-4.4-1.3-5.4c-0.1-0.7,0.7-0.5,0.9-0.7c2,0,4.6,0.7,6.1-0.9C148.8,416.5,148.7,418,148.8,419.3&#10;&#9;&#9; M136.9,417.5c-2.2,1.8-2.3,4.8-3.3,7.3c-0.9,1.4-0.4,3.5-1.8,4.7c-0.5,0.2-1-0.3-1.1-0.8c-0.8-3.4-1.7-6.7-3-9.9&#10;&#9;&#9;c-0.1-1-2.4-1.2-1.1-1.9c1.6-0.2,2.8,0.2,4.4,0.1c0.3,1-1.2,1.5-0.8,2.7c1,1.4,0.7,3.6,1.9,5l0.5-0.5c0.1-2.5,2.9-4.8,0.5-7&#10;&#9;&#9;c0.5-1,2.2-0.3,3.3-0.6C136.7,416.7,137.4,417,136.9,417.5" class="st6"/>
</g>
</svg>