<svg viewBox="28 262 960 484" xmlns:xlink="http://www.w3.org/1999/xlink" xmlns="http://www.w3.org/2000/svg" data-name="Layer 1" id="Layer_1" style="max-height: 500px" width="960" height="484"><defs><style>.cls-1{fill:none;}.cls-2,.cls-3{fill:#002d74;}.cls-3{fill-rule:evenodd;}.cls-4{clip-path:url(#clip-path);}</style><clipPath id="clip-path"><rect height="117.43" width="859.91" y="522.63" x="70.05" class="cls-1"/></clipPath></defs><path d="M227.63,664.82c0-3.66-.12-10.48-1.12-12.25-.43-.71-1.49-1.12-3-1.25l-1.49-.11a1.11,1.11,0,0,1,.11-1.43c2.26.12,4.45.18,6.76.18,2.48,0,4.08-.06,6.22-.18a1,1,0,0,1,.12,1.43l-1.43.11c-1.48.13-2.6.65-3,1.43-.82,2-.82,8.75-.82,12.07v6.7c0,5.15-.83,10.6-4.15,14.14C223.36,688.45,219,690,214.6,690c-4.08,0-8.17-.78-11.07-3.26-3.13-2.6-4.62-6.92-4.62-14v-14c0-6.16-.12-7.17-3.55-7.47l-1.47-.11c-.36-.24-.25-1.25.11-1.43,3,.12,5,.18,7.34.18s4.38-.06,7.28-.18c.36.18.48,1.19.12,1.43l-1.42.11c-3.43.3-3.55,1.31-3.55,7.47v12.79c0,9.53,3,15.8,12,15.8,8.59,0,11.85-6.74,11.85-15.74Z" class="cls-2"/><path d="M305,679c0,1.77,0,8.82.18,10.36A1.08,1.08,0,0,1,304,690c-.7-1-2.42-3.08-7.57-8.93l-13.74-15.64c-1.6-1.83-5.62-6.69-6.87-8h-.12a15.45,15.45,0,0,0-.29,3.84v12.9c0,2.79.06,10.49,1.07,12.26.35.66,1.53,1,3,1.12l1.83.19a1.07,1.07,0,0,1-.12,1.47c-2.66-.11-4.73-.17-6.93-.17-2.48,0-4.07.06-6.15.17a1.07,1.07,0,0,1-.12-1.47l1.6-.19c1.36-.17,2.31-.52,2.6-1.18.83-2.12.78-9.35.78-12.2v-17.1c0-1.66-.07-2.9-1.31-4.26a6.43,6.43,0,0,0-3.67-1.42l-1-.12a1,1,0,0,1,.11-1.49c2.49.18,5.63.18,6.68.18a18.75,18.75,0,0,0,2.73-.18c1.19,3,8.18,10.85,10.13,13l5.74,6.46c4.09,4.55,7,7.87,9.77,10.71h.11a5.66,5.66,0,0,0,.25-2.49V664.82c0-2.78-.07-10.47-1.19-12.24-.35-.54-1.3-.91-3.67-1.19l-1-.12c-.41-.36-.36-1.31.13-1.49,2.71.12,4.73.18,7,.18,2.54,0,4.08-.06,6.09-.18a1,1,0,0,1,.12,1.49l-.82.12c-1.9.28-3.08.76-3.32,1.24-1,2.14-.89,9.47-.89,12.19Z" class="cls-2"/><path d="M349.09,659c0-6.28-.12-7.3-3.62-7.58l-1.48-.12c-.36-.24-.23-1.31.12-1.49,3,.13,5,.18,7.46.18s4.38-.05,7.34-.18c.35.18.47,1.25.12,1.49l-1.48.12c-3.49.28-3.61,1.3-3.61,7.58V680c0,6.27.12,7.11,3.61,7.51l1.48.19c.35.23.23,1.3-.12,1.47-3-.11-5-.17-7.34-.17s-4.5.06-7.46.17a1.13,1.13,0,0,1-.12-1.47l1.48-.19c3.5-.4,3.62-1.24,3.62-7.51Z" class="cls-2"/><path d="M397,656.24c-1.36-3.31-2.25-4.57-4.8-4.85l-1.07-.12a1,1,0,0,1,.13-1.49c1.72.12,3.61.18,6.15.18s4.68-.06,7.17-.18a1,1,0,0,1,.12,1.49l-.89.12c-2.25.28-2.72.64-2.78,1.12a72.84,72.84,0,0,0,3,8.29c2.72,6.87,5.45,13.67,8.41,20.43,1.82-3.91,4.32-10,5.68-13.15,1.72-4,4.5-10.71,5.5-13.26a6.19,6.19,0,0,0,.54-2.31c0-.41-.6-.89-2.67-1.12l-1.07-.12a1.06,1.06,0,0,1,.12-1.49c1.66.12,3.91.18,6.16.18,2,0,3.79-.06,5.74-.18a1.18,1.18,0,0,1,.13,1.49l-1.78.12a3.8,3.8,0,0,0-3.09,2.07,145.16,145.16,0,0,0-6.62,13.62l-3.2,7.28c-2.37,5.45-5.15,12.31-6.16,15.46a1.32,1.32,0,0,1-.64.16,2.85,2.85,0,0,1-.9-.16,67.48,67.48,0,0,0-2.72-7.88Z" class="cls-2"/><path d="M468.3,658.85c0-6.16-.12-7.05-3.61-7.46l-.95-.12c-.35-.24-.24-1.31.12-1.49,2.55.12,4.56.18,7,.18H482a78.58,78.58,0,0,0,8-.18,68.63,68.63,0,0,1,.95,7.88,1.14,1.14,0,0,1-1.48.12c-.89-2.78-1.42-4.85-4.51-5.63a28.72,28.72,0,0,0-5.74-.35h-4.26c-1.77,0-1.77.12-1.77,2.37V666c0,1.66.18,1.66,1.95,1.66h3.44a21.58,21.58,0,0,0,5-.36c.72-.23,1.13-.59,1.43-2.07l.48-2.43a1.15,1.15,0,0,1,1.53.06c0,1.43-.24,3.73-.24,6s.24,4.38.24,5.67a1.15,1.15,0,0,1-1.53.06l-.55-2.29a2.52,2.52,0,0,0-1.82-2.26,19.05,19.05,0,0,0-4.56-.3h-3.44c-1.77,0-1.95,0-1.95,1.61v8.34c0,3.13.18,5.15,1.11,6.15.72.71,2,1.36,7.18,1.36,4.56,0,6.27-.24,7.58-.89,1.06-.59,2.66-2.66,4.19-5.74a1.08,1.08,0,0,1,1.48.42,49.52,49.52,0,0,1-2.67,8.22c-5.32-.11-10.58-.17-15.85-.17h-5.34c-2.54,0-4.55.06-8,.17a1.13,1.13,0,0,1-.12-1.47l1.95-.19c3.38-.28,3.68-1.18,3.68-7.39Z" class="cls-2"/><path d="M532.46,658.91c0-5.63-.18-6.64-2.61-6.93l-1.89-.24a1,1,0,0,1,.06-1.48c3.31-.3,7.4-.48,13.2-.48,3.68,0,7.16.3,9.89,1.78a8.85,8.85,0,0,1,4.91,8.3c0,5.62-4.44,8.7-7.4,9.88-.29.36,0,1,.29,1.43,4.74,7.63,7.88,12.37,11.91,15.74a7,7,0,0,0,4.08,1.65.51.51,0,0,1,.06.84,9.52,9.52,0,0,1-2.6.29c-5,0-8.06-1.48-12.25-7.45-1.55-2.2-4-6.29-5.81-8.94-.89-1.31-1.84-1.9-4.2-1.9-2.68,0-2.78.06-2.78,1.31v7.45c0,6.21.1,6.93,3.55,7.39l1.23.19a1.13,1.13,0,0,1-.11,1.47c-2.66-.11-4.67-.17-7-.17s-4.63.06-7.41.17a1.13,1.13,0,0,1-.11-1.47l1.47-.19c3.44-.4,3.56-1.18,3.56-7.39Zm4.86,8.46a4.92,4.92,0,0,0,.17,2c.18.18,1.07.29,4.09.29,2.13,0,4.38-.24,6.09-1.54s3-3.31,3-7.33c0-4.69-2.89-9.13-9.47-9.13-3.67,0-3.84.24-3.84,1.9Z" class="cls-2"/><path d="M604,690a18.51,18.51,0,0,1-9.24-2.19c-.71-1.31-1.47-5.51-1.6-8.29.31-.42,1.19-.53,1.43-.17.88,3,3.31,8.81,10.18,8.81,5,0,7.41-3.24,7.41-6.8,0-2.61-.55-5.52-4.86-8.29l-5.62-3.67c-3-2-6.4-5.33-6.4-10.18,0-5.63,4.39-10.19,12.08-10.19a23.11,23.11,0,0,1,5.5.76,7.42,7.42,0,0,0,2.07.36,26,26,0,0,1,1.07,7.23c-.24.36-1.19.53-1.48.18-.77-2.85-2.36-6.7-8.06-6.7s-7,3.85-7,6.58c0,3.44,2.85,5.91,5,7.27l4.74,3c3.73,2.3,7.41,5.74,7.41,11.36,0,6.51-4.92,11-12.62,11" class="cls-2"/><path d="M656.86,659c0-6.28-.11-7.3-3.61-7.58l-1.48-.12c-.36-.24-.23-1.31.12-1.49,3,.13,5,.18,7.45.18s4.39-.05,7.36-.18c.36.18.47,1.25.12,1.49l-1.49.12c-3.49.28-3.6,1.3-3.6,7.58V680c0,6.27.11,7.11,3.6,7.51l1.49.19c.35.23.24,1.3-.12,1.47-3-.11-5-.17-7.36-.17s-4.48.06-7.45.17a1.13,1.13,0,0,1-.12-1.47l1.48-.19c3.5-.4,3.61-1.24,3.61-7.51Z" class="cls-2"/><path d="M722.6,680.16c0,6.21.11,7.1,3.53,7.39l1.91.19c.36.23.23,1.3-.12,1.48-3.38-.12-5.39-.18-7.76-.18s-4.44.06-8.23.18a1,1,0,0,1,0-1.48l2.14-.19c3.37-.29,3.66-1.18,3.66-7.39V653.69c0-1.84,0-1.88-1.78-1.88H712.7c-2.55,0-5.8.11-7.29,1.47a11,11,0,0,0-2.66,4.1,1.17,1.17,0,0,1-1.54-.42,60.65,60.65,0,0,0,2.25-8.83c.19-.11.95-.18,1.13,0,.35,1.9,2.31,1.83,5,1.83h24c3.19,0,3.72-.11,4.61-1.65.3-.11.95-.06,1.06.17a35.37,35.37,0,0,0-.88,9c-.23.47-1.24.47-1.55.11-.17-1.47-.59-3.66-1.47-4.32-1.36-1-3.61-1.47-6.88-1.47h-4.2c-1.77,0-1.7,0-1.7,2Z" class="cls-2"/><path d="M790.07,680c0,6.33.35,7.28,3.55,7.51l2.26.19a1.14,1.14,0,0,1-.13,1.47c-3.67-.11-5.68-.17-8-.17s-4.62.06-7.75.17a1.12,1.12,0,0,1-.13-1.47l1.84-.19c3.44-.35,3.54-1.18,3.54-7.51v-3c0-3.25-.17-4-1.88-7.33l-7-13.63c-2-3.91-2.91-4.2-4.69-4.5l-1.65-.29a1.1,1.1,0,0,1,.11-1.49c1.9.12,4,.18,6.88.18s4.84-.06,6.33-.18c.53.18.53,1.13.18,1.49l-.76.12c-2.08.29-2.5.58-2.5,1.06a30.47,30.47,0,0,0,1.83,4.57c2.19,4.37,4.39,9.05,6.7,13.14,1.82-3.15,3.78-6.58,5.56-10,1.66-3.08,3.84-7.11,3.84-7.82,0-.36-1.06-.77-2.47-.94l-1.08-.12a1,1,0,0,1,.12-1.49c2.13.12,3.85.18,5.69.18s3.49-.06,5.5-.18a1,1,0,0,1,.13,1.49l-1.66.29c-3.08.54-4.86,4.27-7.82,9.36l-3.72,6.45c-2.62,4.51-2.79,5-2.79,9.59Z" class="cls-2"/><path d="M496.36,363A390.77,390.77,0,0,0,419,371.4c11.17,70.74,55.37,105.19,77.34,117.32Zm-33.12,14.24a28.25,28.25,0,1,0,28.25,28.24,28.27,28.27,0,0,0-28.25-28.24m1.22,27h11a31,31,0,0,0-.85-6.23,64.25,64.25,0,0,1-10.12,1Zm9.45-8.59a32.9,32.9,0,0,0-2.73-6.24,53.6,53.6,0,0,1-6.72.59v6.56a61.86,61.86,0,0,0,9.45-.91m-4.14-8.51a36.1,36.1,0,0,0-5.31-6.2v6.62a44.88,44.88,0,0,0,5.31-.42m2.64-.42a47.78,47.78,0,0,0,6.52-1.72A25.59,25.59,0,0,0,467,380a38.13,38.13,0,0,1,5.46,6.77m-15.72.42a47.82,47.82,0,0,0,5.34.42v-6.66a35.73,35.73,0,0,0-5.34,6.24m2.82-7.19A25.57,25.57,0,0,0,447.57,385a45.45,45.45,0,0,0,6.48,1.71,38.34,38.34,0,0,1,5.46-6.76m-4.22,9.45a32.4,32.4,0,0,0-2.74,6.25,62.37,62.37,0,0,0,9.48.91V390a51.94,51.94,0,0,1-6.74-.6m-3.42,8.6a31.88,31.88,0,0,0-.85,6.24h11V399a63.7,63.7,0,0,1-10.16-1m-2.37-.47a63.72,63.72,0,0,1-9.64-2.92,25.31,25.31,0,0,0-2.35,9.63h11.08a34.29,34.29,0,0,1,.91-6.71m-12,9.14a25.22,25.22,0,0,0,2.35,9.63,63.68,63.68,0,0,1,9.64-2.91,34.5,34.5,0,0,1-.91-6.72Zm14.37,6.24a64.63,64.63,0,0,1,10.15-1v-5.25H451a31.79,31.79,0,0,0,.86,6.24m.68,2.35a31.89,31.89,0,0,0,2.74,6.26,50.67,50.67,0,0,1,6.73-.59v-6.57a62.11,62.11,0,0,0-9.47.9m4.13,8.51A36.16,36.16,0,0,0,462,430v-6.67a53.1,53.1,0,0,0-5.34.42m-2.64.43a46.82,46.82,0,0,0-6.48,1.71A25.57,25.57,0,0,0,459.51,431a38,38,0,0,1-5.46-6.76m15.71-.44a51.85,51.85,0,0,0-5.3-.41V430a35.36,35.36,0,0,0,5.3-6.22M467,431a25.81,25.81,0,0,0,12-5.06,47.78,47.78,0,0,0-6.52-1.72A38.2,38.2,0,0,1,467,431m4.22-9.45a33.69,33.69,0,0,0,2.74-6.26,60.61,60.61,0,0,0-9.45-.9v6.57a50.22,50.22,0,0,1,6.71.59m3.41-8.61a31.78,31.78,0,0,0,.85-6.24h-11v5.25a64.25,64.25,0,0,1,10.12,1m2.38.47a64.43,64.43,0,0,1,9.67,2.92,25.42,25.42,0,0,0,2.36-9.63H477.86a34.28,34.28,0,0,1-.9,6.71m12-9.14a25.51,25.51,0,0,0-2.36-9.63,63.29,63.29,0,0,1-9.67,2.92,34.28,34.28,0,0,1,.9,6.71Zm-7.93-17.42a51.39,51.39,0,0,1-7.38,2.13,34.41,34.41,0,0,1,2.63,6.24,61,61,0,0,0,9.19-2.75,26.25,26.25,0,0,0-4.44-5.62M441,392.45a61.15,61.15,0,0,0,9.15,2.74,35.18,35.18,0,0,1,2.64-6.24,49.26,49.26,0,0,1-7.34-2.12,26.3,26.3,0,0,0-4.45,5.62m4.45,31.66a49.22,49.22,0,0,1,7.34-2.11,36,36,0,0,1-2.64-6.26,62.34,62.34,0,0,0-9.15,2.74,25.87,25.87,0,0,0,4.45,5.63m40.06-5.63a62.15,62.15,0,0,0-9.19-2.75,35.32,35.32,0,0,1-2.63,6.26,49.25,49.25,0,0,1,7.38,2.12,25.83,25.83,0,0,0,4.44-5.63" class="cls-3"/><path d="M416.41,337.1V322.58a4.2,4.2,0,0,1,3.18-4.07l.1,0a385,385,0,0,1,160.53,0l.06,0a4.2,4.2,0,0,1,3.33,4.1V337.1a225,225,0,0,1-1.61,27,399.06,399.06,0,0,0-164,0,223,223,0,0,1-1.61-27.06M500,322.26c-12.62-4.64-30.69-5.65-41.67-3.35l-4.79,3.72-1.28.19a1.3,1.3,0,0,0-.92.64L438,353a.92.92,0,0,0,1,1.37c20.33-3.87,41.89-5.06,61-5.06h0c19.12,0,40.69,1.19,61,5.06a.91.91,0,0,0,1-1.37l-13.36-29.52a1.28,1.28,0,0,0-.91-.64l-1.29-.19-4.78-3.72c-11-2.3-29.06-1.29-41.68,3.35Z" class="cls-2"/><path d="M499,345.25c-16.46-5.39-35.33-6.2-48.75-3.67l6.63-18.87-4.4,3.34-9.16,23.83c12.21-2,39.8-4.21,53.46-4a5,5,0,0,1,2.22-.61" class="cls-2"/><path d="M500.82,345.25c16.45-5.39,35.35-6.2,48.78-3.67l-6.67-18.87,4.41,3.34,9.16,23.83c-12.21-2-39.79-4.21-53.46-4a5,5,0,0,0-2.22-.61" class="cls-2"/><path d="M503.65,416.22v72.49a129.63,129.63,0,0,0,15.48-10.12V426.52Z" class="cls-2"/><path d="M519.13,363.45c-5.15-.25-10.32-.42-15.48-.47v17.21l15.48,10.29Z" class="cls-2"/><path d="M550.08,411.09v-44.9c-5.15-.65-10.3-1.25-15.47-1.71v36.3Z" class="cls-2"/><path d="M534.61,436.82v28.32a156.36,156.36,0,0,0,15.47-18v-.05Z" class="cls-2"/><path d="M550.08,447.17l0,0,0,0Z" class="cls-2"/><path d="M565.59,421.41a178.87,178.87,0,0,0,15.4-50c-5.12-1.09-10.26-2.05-15.44-2.92v52.92Z" class="cls-2"/><polygon points="519.13 390.49 519.13 426.52 534.61 436.82 534.61 400.78 519.13 390.49" class="cls-2"/><path d="M565.55,421.38l-15.47-10.29v36l0,0a162,162,0,0,0,15.44-25.66Z" class="cls-2"/><path d="M565.55,421.49l0-.08,0,0Z" class="cls-2"/><g class="cls-4"><path d="M94.64,543.71c0-15.09-1.36-16.72-9.37-17.41l-3.4-.26c-.82-.55-.54-3,.27-3.4,7.88.27,12.5.41,18.2.41,5.44,0,10.07-.14,15.5-.41.82.41,1.09,2.85.27,3.4l-2,.26c-8,1.1-8.3,3-8.3,17.41v50.42c0,10.73-.54,20.11-3.12,26.36-4.49,10.88-14.14,19.58-26.77,19.58-1.63,0-5.84-.14-5.84-2.86,0-2.3,2-6.25,4.88-6.25a16.76,16.76,0,0,1,5,.81,20.63,20.63,0,0,0,5.7,1,5.8,5.8,0,0,0,5.44-3.54c3.12-6.38,3.53-26.78,3.53-34.11Z" class="cls-2"/></g><path d="M115.82,575.71c0-22.93,17.21-40.47,40.82-40.47,26.49,0,39.79,19.15,39.79,39.33,0,23.16-17.66,40-39.79,40-25.45,0-40.82-18.24-40.82-38.88M185,578.12c0-18.92-8.38-39.32-30.27-39.32-11.93,0-27.41,8.14-27.41,33.25,0,17,8.26,39,30.85,39,13.75,0,26.83-10.32,26.83-32.91" class="cls-2"/><path d="M222.48,575.72c-5.5,0-5.74.23-5.74,3.66v16.17c0,12,.58,13.64,7,14.33l3.32.35c.69.45.46,2.52-.23,2.85-6.2-.23-10.09-.33-14.56-.33-4.93,0-8.82.23-13.3.33-.69-.33-.91-2.17-.22-2.85l1.94-.35c6.42-1.14,6.65-2.3,6.65-14.33V554.27c0-12-.8-14-6.77-14.45l-3-.23c-.68-.46-.45-2.52.23-2.86,5.63.11,9.52.34,14.45.34,4.47,0,8.36-.11,13.29-.34.7.34.93,2.4.23,2.86l-2.17.23c-6.64.7-6.88,2.41-6.88,14.45v13.19c0,3.55.24,3.67,5.74,3.67h32.79c5.5,0,5.73-.12,5.73-3.67V554.27c0-12-.23-13.75-7-14.45l-2.18-.23c-.69-.46-.46-2.52.23-2.86,5.26.23,9.16.34,13.88.34,4.46,0,8.36-.11,13.52-.34.68.34.91,2.4.24,2.86l-2.42.23c-6.65.7-6.88,2.41-6.88,14.45v41.28c0,12,.23,13.53,6.88,14.33l2.74.35c.69.45.47,2.52-.22,2.85-5.5-.23-9.4-.33-13.86-.33-4.72,0-8.84.1-13.88.33-.69-.33-.92-2.17-.23-2.85l2.18-.35c7-1.14,7-2.3,7-14.33V579.38c0-3.43-.23-3.66-5.73-3.66Z" class="cls-2"/><path d="M358.35,593.25c0,3.45,0,17.09.33,20.07a2,2,0,0,1-2.16,1.26c-1.38-1.94-4.71-6-14.69-17.3L315.24,567c-3.09-3.55-10.9-13-13.3-15.48h-.23c-.46,1.38-.57,4-.57,7.45v25c0,5.38.11,20.29,2.06,23.73.69,1.26,3,2,5.85,2.18l3.54.35a2.07,2.07,0,0,1-.22,2.85c-5.16-.23-9.17-.34-13.42-.34-4.8,0-7.9.11-11.93.34a2.1,2.1,0,0,1-.22-2.85l3.1-.35c2.64-.35,4.47-1,5.05-2.3,1.6-4.13,1.49-18.11,1.49-23.61V550.83c0-3.21-.12-5.62-2.53-8.25-1.6-1.6-4.35-2.41-7.11-2.76l-1.94-.22c-.69-.69-.69-2.41.22-2.87,4.82.33,10.9.33,13,.33a37.07,37.07,0,0,0,5.28-.33c2.29,5.85,15.82,21,19.59,25.22L334,574.45C342,583.27,347.56,589.7,353,595.2h.23c.46-.57.46-2.41.46-4.81V565.85c0-5.38-.12-20.29-2.3-23.73-.68-1-2.52-1.72-7.1-2.3l-1.95-.22c-.8-.69-.69-2.54.22-2.87,5.28.23,9.18.33,13.53.33,4.94,0,7.92-.1,11.81-.33a2,2,0,0,1,.23,2.87l-1.6.22c-3.67.58-6,1.5-6.43,2.41-1.93,4.13-1.71,18.35-1.71,23.62Z" class="cls-2"/><path d="M388.66,614.58c-9.64,0-15.72-3-17.9-4.24-1.36-2.53-2.86-10.66-3.09-16.05.58-.81,2.3-1,2.75-.34,1.72,5.84,6.42,17.08,19.72,17.08,9.63,0,14.34-6.31,14.34-13.2,0-5-1-10.66-9.41-16l-10.89-7.11c-5.74-3.79-12.38-10.33-12.38-19.72,0-10.9,8.48-19.72,23.38-19.72a44.46,44.46,0,0,1,10.67,1.49,15.33,15.33,0,0,0,4,.69,49.77,49.77,0,0,1,2.08,14c-.46.69-2.3,1-2.88.34-1.48-5.5-4.57-13-15.58-13-11.23,0-13.65,7.45-13.65,12.72,0,6.65,5.51,11.46,9.75,14.11l9.17,5.72c7.23,4.48,14.33,11.12,14.33,22,0,12.61-9.51,21.21-24.41,21.21" class="cls-2"/><path d="M481.13,568.85c-6.53,0-6.8.27-6.8,4.35v19.16c0,14.27.68,16.18,8.29,17l3.94.4c.82.55.54,3-.27,3.4-7.33-.27-12-.41-17.26-.41-5.84,0-10.47.27-15.76.41-.82-.41-1.1-2.58-.27-3.4l2.31-.4c7.6-1.36,7.88-2.72,7.88-17V543.43c0-14.27-1-16.57-8-17.12l-3.54-.27c-.81-.55-.54-3,.28-3.41,6.65.14,11.28.42,17.12.42,5.3,0,9.93-.14,15.76-.42.82.42,1.09,2.86.27,3.41l-2.58.27c-7.88.82-8.15,2.85-8.15,17.12v15.64c0,4.21.27,4.33,6.8,4.33H520c6.53,0,6.8-.12,6.8-4.33V543.43c0-14.27-.27-16.3-8.3-17.12l-2.57-.27c-.82-.55-.55-3,.27-3.41,6.24.28,10.87.42,16.45.42,5.29,0,9.91-.14,16-.42.81.42,1.09,2.86.26,3.41l-2.85.27c-7.87.82-8.15,2.85-8.15,17.12v48.93c0,14.27.28,16,8.15,17l3.27.4c.81.55.54,3-.28,3.4-6.52-.27-11.14-.41-16.43-.41-5.58,0-10.47.14-16.45.41-.82-.41-1.09-2.58-.27-3.4l2.57-.4c8.3-1.36,8.3-2.72,8.3-17V573.2c0-4.08-.27-4.35-6.8-4.35Z" class="cls-2"/><path d="M548.49,575.71c0-22.93,17.2-40.47,40.82-40.47,26.48,0,39.78,19.15,39.78,39.33,0,23.16-17.66,40-39.78,40-25.46,0-40.82-18.24-40.82-38.88m69.14,2.41c0-18.92-8.37-39.32-30.27-39.32-11.93,0-27.4,8.14-27.4,33.25,0,17,8.25,39,30.84,39,13.76,0,26.83-10.32,26.83-32.91" class="cls-2"/><path d="M649.84,595.55c0,12,.23,13.52,7.56,14.33l3.11.34c.68.57.46,2.53-.23,2.87-6.54-.24-10.32-.34-14.91-.34-4.82,0-8.94.1-14,.34-.68-.34-.91-2.18-.22-2.87l2.4-.34c6.66-.91,6.88-2.29,6.88-14.33V553.24c0-9.75-.22-11.7-5.39-12.27l-4.12-.45a1.92,1.92,0,0,1,.23-2.87c6.07-.8,13.18-.93,22.7-.93s16.62,1.26,22,4.6A19.82,19.82,0,0,1,685,558.51c0,10.55-6.53,15.83-11.46,18.23a38.69,38.69,0,0,1-15.83,3.44c-.8-.34-.8-2.06-.12-2.29,12.39-2.29,16.86-9.29,16.86-19.27,0-11.12-6.53-18.33-18.45-18.33-6.08,0-6.2.45-6.2,4.13Z" class="cls-2"/><path d="M697.55,554.26c0-12-.23-13.86-6.88-14.44l-2.87-.22c-.69-.47-.46-2.54.22-2.88,5.62.24,9.3.34,14.45.34,4.47,0,8.38-.1,13.31-.34.68.34.91,2.41.22,2.88l-2.17.22c-6.66.7-6.89,2.41-6.89,14.44v13.2c0,2.18.23,4.36,1.5,4.36a6.48,6.48,0,0,0,3.21-1.27c1.6-1.37,4.59-4.36,5.85-5.5l12.37-12.27a126.24,126.24,0,0,0,9-9.52,3.41,3.41,0,0,0,.81-1.83c0-.45-.46-.8-2-1.15l-3.1-.68a1.93,1.93,0,0,1,.23-2.88c4,.24,8.59.34,12.61.34s7.91-.1,11.35-.34a2.15,2.15,0,0,1,.23,2.88,28.48,28.48,0,0,0-10.67,3.2c-3.2,1.84-9.63,7.22-16,13.31L722,565.85c-1.61,1.61-2.64,2.64-2.64,3.56s.69,1.72,2.18,3.55c10.89,12.49,19.72,22.82,28.66,32.21,2.76,2.76,5.28,4.26,9.18,4.71l3.09.35a2,2,0,0,1-.23,2.86c-3-.24-7.45-.35-12.84-.35-4.7,0-8.72.11-14,.35-.8-.24-1.15-2.18-.46-2.86l2.64-.47c1.61-.23,2.75-.57,2.75-1.14s-.8-1.61-1.61-2.65c-2.17-2.75-5.15-5.84-9.51-10.77L720,584.88c-6.53-7.33-8.37-9.63-11.12-9.63-1.73,0-2,1.49-2,5.51v14.79c0,12,.23,13.64,6.66,14.33l3.09.35c.68.45.47,2.51-.23,2.86-5.61-.24-9.52-.35-14-.35-4.7,0-8.6.11-13.29.35-.69-.35-.93-2.06-.23-2.86l2.29-.35c6.08-.92,6.31-2.3,6.31-14.33Z" class="cls-2"/><path d="M776.24,554.5c0-12.16-.23-14.1-7-14.68l-2.87-.22c-.69-.47-.46-2.53.23-2.88,5.73.24,9.63.35,14.45.35,4.58,0,8.48-.11,14.22-.35.69.35.91,2.41.22,2.88l-2.86.22c-6.76.58-7,2.52-7,14.68v40.81c0,12.16.24,13.77,7,14.57l2.86.34c.69.46.47,2.52-.22,2.87-5.74-.24-9.64-.35-14.22-.35-4.82,0-8.72.11-14.45.35-.69-.35-.92-2.18-.23-2.87l2.87-.34c6.76-.8,7-2.41,7-14.57Z" class="cls-2"/><path d="M875.42,593.25c0,3.45,0,17.09.34,20.07a2.05,2.05,0,0,1-2.17,1.26c-1.38-1.94-4.7-6-14.67-17.3L832.32,567c-3.1-3.55-10.91-13-13.31-15.48h-.22c-.46,1.38-.59,4-.59,7.45v25c0,5.38.13,20.29,2.08,23.73.69,1.26,3,2,5.85,2.18l3.55.35a2.08,2.08,0,0,1-.23,2.85c-5.16-.23-9.17-.34-13.42-.34-4.81,0-7.91.11-11.92.34a2.1,2.1,0,0,1-.23-2.85l3.1-.35c2.63-.35,4.46-1,5-2.3,1.6-4.13,1.49-18.11,1.49-23.61V550.83c0-3.21-.11-5.62-2.52-8.25-1.61-1.6-4.36-2.41-7.11-2.76l-2-.22c-.69-.69-.69-2.41.23-2.87,4.82.33,10.89.33,13,.33a36.78,36.78,0,0,0,5.26-.33c2.31,5.85,15.83,21,19.61,25.22l11.13,12.5c7.9,8.82,13.52,15.25,18.91,20.75h.23c.46-.57.46-2.41.46-4.81V565.85c0-5.38-.12-20.29-2.29-23.73-.69-1-2.52-1.72-7.1-2.3l-2-.22c-.81-.69-.7-2.54.22-2.87,5.28.23,9.17.33,13.53.33,4.93,0,7.92-.1,11.81-.33a2,2,0,0,1,.23,2.87l-1.6.22c-3.67.58-6,1.5-6.43,2.41-1.95,4.13-1.72,18.35-1.72,23.62Z" class="cls-2"/><path d="M905.53,614.58c-9.63,0-15.7-3-17.89-4.24-1.37-2.53-2.86-10.66-3.09-16.05.57-.81,2.3-1,2.74-.34C889,599.79,893.72,611,907,611c9.64,0,14.34-6.31,14.34-13.2,0-5-1-10.66-9.41-16l-10.88-7.11c-5.73-3.79-12.39-10.33-12.39-19.72,0-10.9,8.49-19.72,23.4-19.72a44.52,44.52,0,0,1,10.66,1.49,15.39,15.39,0,0,0,4,.69c1,2.75,2.06,9.17,2.06,14-.45.69-2.29,1-2.87.34-1.48-5.5-4.58-13-15.58-13-11.24,0-13.65,7.45-13.65,12.72,0,6.65,5.51,11.46,9.74,14.11l9.18,5.72c7.23,4.48,14.33,11.12,14.33,22,0,12.61-9.51,21.21-24.42,21.21" class="cls-2"/></svg>