<svg viewBox="232 224 548 538" xmlns="http://www.w3.org/2000/svg" data-name="Layer 1" id="Layer_1" style="max-height: 500px" width="548" height="538"><defs><style>.cls-1{fill:#213468;}</style></defs><path d="M509.81,736.47c11.69-6.26,25.88-15.44,40.91-26.71V572l-40.91-27.14Z" class="cls-1"/><path d="M509.81,449.28l40.91,27.14V406.71c-13.78-.84-27.14-.84-40.91-1.26Z" class="cls-1"/><path d="M632.53,413.8c-13.77-1.67-27.13-3.34-40.91-4.17v93.92l40.91,27.13Z" class="cls-1"/><path d="M591.62,599.14v75.13a431.28,431.28,0,0,0,40.91-47.58h0Z" class="cls-1"/><path d="M673.86,420.06V558.23h0c17.95-37.15,32.14-80.14,40.49-130.65l-1.25-.42c-13.36-2.5-26.3-5-39.24-7.1" class="cls-1"/><polygon points="550.72 476.42 550.72 572.01 591.63 599.14 591.63 503.55 550.72 476.42" class="cls-1"/><path d="M632.53,531.1v95.59h0a458.67,458.67,0,0,0,40.91-68v-.42Z" class="cls-1"/><path d="M419.65,578.27a63,63,0,0,0,30.89-19.2,106,106,0,0,0-15.87-4.6c-4.17,9.6-10,17.54-15,23.8" class="cls-1"/><path d="M354.53,559.07a64.79,64.79,0,0,0,30.89,19.2,89.89,89.89,0,0,1-15-23.8,122.35,122.35,0,0,0-15.86,4.6" class="cls-1"/><path d="M396.69,459.3a96.18,96.18,0,0,0-14.19,20.45c4.17.42,9.18.84,14.19,1.26Z" class="cls-1"/><path d="M438.85,543.2a112.07,112.07,0,0,1,18.78,5.85,59.66,59.66,0,0,0,8.77-27.14H442.6a83.86,83.86,0,0,1-3.75,21.29" class="cls-1"/><path d="M385.42,453.87a62.81,62.81,0,0,0-30.89,19.21,104.41,104.41,0,0,0,15.86,4.59,123.63,123.63,0,0,1,15-23.8" class="cls-1"/><path d="M450.54,473.08a62.9,62.9,0,0,0-30.89-19.21,90.13,90.13,0,0,1,15,23.8,92.21,92.21,0,0,0,15.87-4.59" class="cls-1"/><path d="M443,510.23h23.79c-.83-10-4.17-18.79-8.76-27.14a111.91,111.91,0,0,1-18.79,5.85A160.17,160.17,0,0,1,443,510.23" class="cls-1"/><path d="M408.38,572.84a96.18,96.18,0,0,0,14.19-20.45c-4.59-.42-9.19-.84-14.19-1.26Z" class="cls-1"/><path d="M396.69,521.91H374.15a65.29,65.29,0,0,0,3.75,18.79A130.38,130.38,0,0,1,396.69,539Z" class="cls-1"/><path d="M408.38,539c6.67.42,12.94.83,18.78,1.67,1.67-5.85,3.34-12.11,3.76-18.79H408.38Z" class="cls-1"/><path d="M422.57,480.17a75.91,75.91,0,0,0-14.19-20.45v21.7c5-.41,10-.83,14.19-1.25" class="cls-1"/><path d="M430.92,510.23a65.28,65.28,0,0,0-3.76-18.79,130.24,130.24,0,0,1-18.78,1.67v17.12Z" class="cls-1"/><path d="M382.5,552.39a83,83,0,0,0,14.19,20.45V551.13a77.55,77.55,0,0,0-14.19,1.26" class="cls-1"/><path d="M366.22,488.94a111.91,111.91,0,0,1-18.79-5.85,65,65,0,0,0-8.76,27.14h23.79a87.31,87.31,0,0,1,3.76-21.29" class="cls-1"/><path d="M396.69,493.11c-6.68-.41-12.94-.83-18.79-1.67a68.29,68.29,0,0,0-3.75,18.79h22.54Z" class="cls-1"/><path d="M362.46,521.91H338.67c.83,10,4.17,18.79,8.76,27.14a111.91,111.91,0,0,1,18.79-5.85c-1.67-6.68-3.34-13.35-3.76-21.29" class="cls-1"/><path d="M285.65,428c30.06,186.18,146.52,276.76,204.54,308.9v-331c-68.46.84-136.91,7.93-203.28,22.12Zm116.88,11.69a76.39,76.39,0,1,1-76.39,76.39c.42-42.16,34.65-76.39,76.39-76.39" class="cls-1"/><path d="M712.68,285.65h0a1014.66,1014.66,0,0,0-425.36,0h-.41a10.82,10.82,0,0,0-8.35,10.86v38.4a647.06,647.06,0,0,0,4.17,71.8,1058,1058,0,0,1,434.54,0,559.24,559.24,0,0,0,4.17-71.8v-38.4a11.17,11.17,0,0,0-8.76-10.86m-48,95.18c-53.43-10-114.37-13.36-164.88-13.36h0c-50.09,0-111.45,2.92-164.88,13.36-2.09.41-3.76-1.26-2.51-3.76l35.07-77.22c.42-.84,23-12.11,23-12.11,28.8-5.84,76.38-3.34,109.36,8.77h0c33-12.11,80.56-15,109.37-8.77,0,0,22.54,11.27,23,12.11l35.07,77.22c1.25,2.5-.42,4.17-2.51,3.76" class="cls-1"/><path d="M600.39,301.1,615,340.75c-34.23-4.59-62.61-2.5-104.77,11.27v3.76c39.65-1.67,89.74-3.76,130.65,5l-22.12-50.93Z" class="cls-1"/><path d="M384.58,340.75l14.61-39.65-18.36,8.35L358.7,360.37c40.49-8.76,91-6.68,130.66-5v-3.75c-41.75-13.36-70.55-15.45-104.78-10.86" class="cls-1"/></svg>